solid X Axis Belt Tensioner
facet normal -4.92587999744835e-015 9.54791801177635e-015 1.0
outer loop
vertex 4.74234000000001 4.47359999999999 6.74999999999998
vertex 7.40356999999999 4.18419999999997 6.75
vertex 8.48356999999998 4.47359999999996 6.75
endloop
endfacet
facet normal -4.92587999744835e-015 9.54791801177635e-015 1.0
outer loop
vertex 7.40356999999999 4.18419999999997 6.75
vertex 4.74234000000001 4.47359999999999 6.74999999999998
vertex 6.61295999999999 3.39359999999998 6.75
endloop
endfacet
facet normal -4.92587999744835e-015 9.54791801177635e-015 1.0
outer loop
vertex 6.61295999999999 3.39359999999998 6.75
vertex 4.74234000000001 4.47359999999999 6.74999999999998
vertex 4.74233999999998 0.153599999999969 6.75000000000002
endloop
endfacet
facet normal -4.92587999744835e-015 9.54791801177635e-015 1.0
outer loop
vertex 6.61295999999999 3.39359999999998 6.75
vertex 4.74233999999998 0.153599999999969 6.75000000000002
vertex 6.32356999999999 2.3136 6.75000000000001
endloop
endfacet
facet normal -4.92587999744835e-015 9.54791801177635e-015 1.0
outer loop
vertex 6.32356999999999 2.3136 6.75000000000001
vertex 4.74233999999998 0.153599999999969 6.75000000000002
vertex 6.61295999999997 1.23360000000001 6.75000000000002
endloop
endfacet
facet normal -4.92587999744835e-015 9.54791801177635e-015 1.0
outer loop
vertex 6.61295999999997 1.23360000000001 6.75000000000002
vertex 4.74233999999998 0.153599999999969 6.75000000000002
vertex 7.40356999999996 0.443000000000033 6.75000000000003
endloop
endfacet
facet normal -4.92587999744835e-015 9.54791801177635e-015 1.0
outer loop
vertex 7.40356999999996 0.443000000000033 6.75000000000003
vertex 4.74233999999998 0.153599999999969 6.75000000000002
vertex 8.48356999999995 0.153599999999924 6.75000000000004
endloop
endfacet
facet normal -4.92587999744835e-015 9.54791801177635e-015 1.0
outer loop
vertex 8.48356999999995 0.153599999999924 6.75000000000004
vertex 4.74233999999998 0.153599999999969 6.75000000000002
vertex 8.48356999999993 -2.00640000000005 6.75000000000006
endloop
endfacet
facet normal -4.92587999744835e-015 9.54791801177635e-015 1.0
outer loop
vertex 8.48356999999995 0.153599999999924 6.75000000000004
vertex 8.48356999999993 -2.00640000000005 6.75000000000006
vertex 12.2248 0.15359999999989 6.75000000000006
endloop
endfacet
facet normal -4.92587999744835e-015 9.54791801177635e-015 1.0
outer loop
vertex 8.48357 6.63359999999994 6.74999999999998
vertex 8.48356999999998 4.47359999999996 6.75
vertex 12.2248 4.47359999999993 6.75000000000002
endloop
endfacet
facet normal -4.92587999744835e-015 9.54791801177635e-015 1.0
outer loop
vertex 8.48356999999998 4.47359999999996 6.75
vertex 8.48357 6.63359999999994 6.74999999999998
vertex 4.74234000000001 4.47359999999999 6.74999999999998
endloop
endfacet
facet normal -4.92587999744835e-015 9.54791801177635e-015 1.0
outer loop
vertex 12.2248 4.47359999999993 6.75000000000002
vertex 8.48356999999998 4.47359999999996 6.75
vertex 9.56357000000001 4.18419999999996 6.75000000000001
endloop
endfacet
facet normal -4.92587999744835e-015 9.54791801177635e-015 1.0
outer loop
vertex 12.2248 4.47359999999993 6.75000000000002
vertex 9.56357000000001 4.18419999999996 6.75000000000001
vertex 10.35418 3.39359999999996 6.75000000000002
endloop
endfacet
facet normal -4.92587999744835e-015 9.54791801177635e-015 1.0
outer loop
vertex 12.2248 4.47359999999993 6.75000000000002
vertex 10.35418 3.39359999999996 6.75000000000002
vertex 12.2248 0.15359999999989 6.75000000000006
endloop
endfacet
facet normal -4.92587999744835e-015 9.54791801177635e-015 1.0
outer loop
vertex 12.2248 0.15359999999989 6.75000000000006
vertex 10.35418 3.39359999999996 6.75000000000002
vertex 10.64357 2.31359999999997 6.75000000000003
endloop
endfacet
facet normal -4.92587999744835e-015 9.54791801177635e-015 1.0
outer loop
vertex 12.2248 0.15359999999989 6.75000000000006
vertex 10.64357 2.31359999999997 6.75000000000003
vertex 10.35418 1.23359999999998 6.75000000000004
endloop
endfacet
facet normal -4.92587999744835e-015 9.54791801177635e-015 1.0
outer loop
vertex 12.2248 0.15359999999989 6.75000000000006
vertex 10.35418 1.23359999999998 6.75000000000004
vertex 9.56356999999998 0.442999999999999 6.75000000000004
endloop
endfacet
facet normal -4.92587999744835e-015 9.54791801177635e-015 1.0
outer loop
vertex 12.2248 0.15359999999989 6.75000000000006
vertex 9.56356999999998 0.442999999999999 6.75000000000004
vertex 8.48356999999995 0.153599999999924 6.75000000000004
endloop
endfacet
facet normal 1.0 -8.19129627867025e-015 4.92587999744843e-015
outer loop
vertex 13.1132000000001 16.8136 9.99999999999991
vertex 13.1132 13.3136000000001 22.9999999999999
vertex 13.1132000000001 13.3136 9.99999999999994
endloop
endfacet
facet normal 1.0 -8.19129627867025e-015 4.92587999744843e-015
outer loop
vertex 13.1132 13.3136000000001 22.9999999999999
vertex 13.1132000000001 16.8136 9.99999999999991
vertex 13.1132 16.8136000000001 22.9999999999999
endloop
endfacet
facet normal 8.19129627867029e-015 1.0 -9.54791801177631e-015
outer loop
vertex 13.1132 16.8136000000001 22.9999999999999
vertex 3.8539400000001 16.8136 9.99999999999986
vertex 3.85394000000004 16.8136000000002 22.9999999999999
endloop
endfacet
facet normal 8.19129627867029e-015 1.0 -9.54791801177631e-015
outer loop
vertex 3.8539400000001 16.8136 9.99999999999986
vertex 13.1132 16.8136000000001 22.9999999999999
vertex 13.1132000000001 16.8136 9.99999999999991
endloop
endfacet
facet normal -1.0 8.19129627867025e-015 -4.92587999744843e-015
outer loop
vertex 3.85394000000007 13.3136000000001 9.9999999999999
vertex 3.85394000000004 16.8136000000002 22.9999999999999
vertex 3.8539400000001 16.8136 9.99999999999986
endloop
endfacet
facet normal -1.0 8.19129627867025e-015 -4.92587999744843e-015
outer loop
vertex 3.85394000000004 16.8136000000002 22.9999999999999
vertex 3.85394000000007 13.3136000000001 9.9999999999999
vertex 3.85394000000001 13.3136000000002 22.9999999999999
endloop
endfacet
facet normal -4.92587999744835e-015 9.54791801177635e-015 1.0
outer loop
vertex 3.85394000000017 32.8136000000002 22.9999999999997
vertex 13.1132000000002 40.9432000000001 22.9999999999997
vertex 3.85394000000024 40.9432000000002 22.9999999999996
endloop
endfacet
facet normal -4.92587999744835e-015 9.54791801177635e-015 1.0
outer loop
vertex 13.1132000000002 40.9432000000001 22.9999999999997
vertex 3.85394000000017 32.8136000000002 22.9999999999997
vertex 13.1132000000002 32.8136000000001 22.9999999999998
endloop
endfacet
facet normal -0.707104490149631 -0.707109072216041 3.26830758276802e-015
outer loop
vertex 8.48357000000005 8.684 9.99999999999996
vertex 3.85394000000001 13.3136000000002 22.9999999999999
vertex 3.85394000000007 13.3136000000001 9.9999999999999
endloop
endfacet
facet normal -0.707104490149631 -0.707109072216041 3.26830758276802e-015
outer loop
vertex 3.85394000000001 13.3136000000002 22.9999999999999
vertex 8.48357000000005 8.684 9.99999999999996
vertex 8.48356999999999 8.68400000000012 23.0
endloop
endfacet
facet normal 0.70710449014962 -0.707109072216053 1.0234531311036e-014
outer loop
vertex 13.1132000000001 13.3136 9.99999999999994
vertex 8.48356999999999 8.68400000000012 23.0
vertex 8.48357000000005 8.684 9.99999999999996
endloop
endfacet
facet normal 0.70710449014962 -0.707109072216053 1.0234531311036e-014
outer loop
vertex 8.48356999999999 8.68400000000012 23.0
vertex 13.1132000000001 13.3136 9.99999999999994
vertex 13.1132 13.3136000000001 22.9999999999999
endloop
endfacet
facet normal 0.499999974374941 -0.866025418579073 1.07316795652055e-014
outer loop
vertex 8.48357 6.63359999999994 6.74999999999998
vertex 4.74234 4.47360000000003 9.99999999999999
vertex 4.74234000000001 4.47359999999999 6.74999999999998
endloop
endfacet
facet normal 0.499999974374941 -0.866025418579073 1.07316795652055e-014
outer loop
vertex 4.74234 4.47360000000003 9.99999999999999
vertex 8.48357 6.63359999999994 6.74999999999998
vertex 8.48356999999999 6.63359999999998 9.99999999999998
endloop
endfacet
facet normal 1.0 -8.19129627867025e-015 4.92587999744843e-015
outer loop
vertex 4.74234000000001 4.47359999999999 6.74999999999998
vertex 4.74233999999996 0.153599999999981 10.0
vertex 4.74233999999998 0.153599999999969 6.75000000000002
endloop
endfacet
facet normal 1.0 -8.19129627867025e-015 4.92587999744843e-015
outer loop
vertex 4.74233999999996 0.153599999999981 10.0
vertex 4.74234000000001 4.47359999999999 6.74999999999998
vertex 4.74234 4.47360000000003 9.99999999999999
endloop
endfacet
facet normal 0.499999974374955 0.866025418579064 -5.80579982020892e-015
outer loop
vertex 8.48356999999992 -2.00640000000003 10.0000000000001
vertex 4.74233999999998 0.153599999999969 6.75000000000002
vertex 4.74233999999996 0.153599999999981 10.0
endloop
endfacet
facet normal 0.499999974374955 0.866025418579064 -5.80579982020892e-015
outer loop
vertex 4.74233999999998 0.153599999999969 6.75000000000002
vertex 8.48356999999992 -2.00640000000003 10.0000000000001
vertex 8.48356999999993 -2.00640000000005 6.75000000000006
endloop
endfacet
facet normal -0.499999974374941 0.866025418579073 -1.07316795652055e-014
outer loop
vertex 12.2248 0.153599999999902 10.0000000000001
vertex 8.48356999999993 -2.00640000000005 6.75000000000006
vertex 8.48356999999992 -2.00640000000003 10.0000000000001
endloop
endfacet
facet normal -0.499999974374941 0.866025418579073 -1.07316795652055e-014
outer loop
vertex 8.48356999999993 -2.00640000000005 6.75000000000006
vertex 12.2248 0.153599999999902 10.0000000000001
vertex 12.2248 0.15359999999989 6.75000000000006
endloop
endfacet
facet normal -1.0 8.19129627867025e-015 -4.92587999744843e-015
outer loop
vertex 12.2248 0.153599999999902 10.0000000000001
vertex 12.2248 4.47359999999993 6.75000000000002
vertex 12.2248 0.15359999999989 6.75000000000006
endloop
endfacet
facet normal -1.0 8.19129627867025e-015 -4.92587999744843e-015
outer loop
vertex 12.2248 4.47359999999993 6.75000000000002
vertex 12.2248 0.153599999999902 10.0000000000001
vertex 12.2248 4.47359999999996 10.0
endloop
endfacet
facet normal -0.499999974374955 -0.866025418579064 5.80579982020892e-015
outer loop
vertex 12.2248 4.47359999999993 6.75000000000002
vertex 8.48356999999999 6.63359999999998 9.99999999999998
vertex 8.48357 6.63359999999994 6.74999999999998
endloop
endfacet
facet normal -0.499999974374955 -0.866025418579064 5.80579982020892e-015
outer loop
vertex 8.48356999999999 6.63359999999998 9.99999999999998
vertex 12.2248 4.47359999999993 6.75000000000002
vertex 12.2248 4.47359999999996 10.0
endloop
endfacet
facet normal -4.92587999744835e-015 9.54791801177635e-015 1.0
outer loop
vertex 3.85394000000001 13.3136000000002 22.9999999999999
vertex 13.1132 16.8136000000001 22.9999999999999
vertex 3.85394000000004 16.8136000000002 22.9999999999999
endloop
endfacet
facet normal -4.92587999744835e-015 9.54791801177635e-015 1.0
outer loop
vertex 13.1132 16.8136000000001 22.9999999999999
vertex 3.85394000000001 13.3136000000002 22.9999999999999
vertex 13.1132 13.3136000000001 22.9999999999999
endloop
endfacet
facet normal -4.92587999744835e-015 9.54791801177635e-015 1.0
outer loop
vertex 13.1132 13.3136000000001 22.9999999999999
vertex 3.85394000000001 13.3136000000002 22.9999999999999
vertex 8.48356999999999 8.68400000000012 23.0
endloop
endfacet
facet normal -0.309005311959719 0.951060312062635 -1.06027689691161e-014
outer loop
vertex 2.3598400000004 52.2480000000001 9.99999999999952
vertex 1.76336000000043 52.0541999999999 -4.87971237726422e-013
vertex 1.76336000000038 52.0542 9.99999999999952
endloop
endfacet
facet normal -0.309005311959719 0.951060312062635 -1.06027689691161e-014
outer loop
vertex 1.76336000000043 52.0541999999999 -4.87971237726422e-013
vertex 2.3598400000004 52.2480000000001 9.99999999999952
vertex 2.35984000000045 52.248 -4.86883435336227e-013
endloop
endfacet
facet normal -0.499894995999716 0.866086019385167 -1.07317410658548e-014
outer loop
vertex 1.76336000000038 52.0542 9.99999999999952
vertex 1.22021000000043 51.7407 -4.87653457150344e-013
vertex 1.22021000000038 51.7407000000001 9.99999999999952
endloop
endfacet
facet normal -0.499894995999716 0.866086019385167 -1.07317410658548e-014
outer loop
vertex 1.22021000000043 51.7407 -4.87653457150344e-013
vertex 1.76336000000038 52.0542 9.99999999999952
vertex 1.76336000000043 52.0541999999999 -4.87971237726422e-013
endloop
endfacet
facet normal -0.669173475922417 0.743106223309905 -1.0391385534073e-014
outer loop
vertex 1.22021000000038 51.7407000000001 9.99999999999952
vertex 0.754140000000436 51.3209999999999 -4.85942000851213e-013
vertex 0.754140000000387 51.3210000000001 9.99999999999952
endloop
endfacet
facet normal -0.669173475922417 0.743106223309905 -1.0391385534073e-014
outer loop
vertex 0.754140000000436 51.3209999999999 -4.85942000851213e-013
vertex 1.22021000000038 51.7407000000001 9.99999999999952
vertex 1.22021000000043 51.7407 -4.87653457150344e-013
endloop
endfacet
facet normal -0.809015234374095 0.5877876747182 -9.59726048717638e-015
outer loop
vertex 0.385490000000412 50.8136 -4.82913312913097e-013
vertex 0.754140000000387 51.3210000000001 9.99999999999952
vertex 0.754140000000436 51.3209999999999 -4.85942000851213e-013
endloop
endfacet
facet normal -0.809015234374095 0.5877876747182 -9.59726048717638e-015
outer loop
vertex 0.754140000000387 51.3210000000001 9.99999999999952
vertex 0.385490000000412 50.8136 -4.82913312913097e-013
vertex 0.385490000000363 50.8136000000001 9.99999999999952
endloop
endfacet
facet normal -0.913534504214416 0.406761243986841 -8.3836843492432e-015
outer loop
vertex 0.130400000000379 50.2407000000001 9.99999999999953
vertex 0.385490000000412 50.8136 -4.82913312913097e-013
vertex 0.130400000000428 50.2407 -4.78699853412699e-013
endloop
endfacet
facet normal -0.913534504214416 0.406761243986841 -8.3836843492432e-015
outer loop
vertex 0.385490000000412 50.8136 -4.82913312913097e-013
vertex 0.130400000000379 50.2407000000001 9.99999999999953
vertex 0.385490000000363 50.8136000000001 9.99999999999952
endloop
endfacet
facet normal -0.978148719555308 0.207906427106793 -6.80331673232422e-015
outer loop
vertex 3.57371007049777e-013 49.6272000000001 9.99999999999953
vertex 0.130400000000428 50.2407 -4.78699853412699e-013
vertex 4.0662980702426e-013 49.6272 -4.73484540464142e-013
endloop
endfacet
facet normal -0.978148719555308 0.207906427106793 -6.80331673232422e-015
outer loop
vertex 0.130400000000428 50.2407 -4.78699853412699e-013
vertex 3.57371007049777e-013 49.6272000000001 9.99999999999953
vertex 0.130400000000379 50.2407000000001 9.99999999999953
endloop
endfacet
facet normal -1.0 8.19129627867025e-015 -4.92587999744843e-015
outer loop
vertex -4.91400916310492e-014 7.89590615113411e-014 10.0
vertex 4.0662980702426e-013 49.6272 -4.73484540464142e-013
vertex 1.18708343434187e-016 -1.12798659301916e-014 3.51896289882996e-016
endloop
endfacet
facet normal -1.0 8.19129627867025e-015 -4.92587999744843e-015
outer loop
vertex 4.0662980702426e-013 49.6272 -4.73484540464142e-013
vertex -4.91400916310492e-014 7.89590615113411e-014 10.0
vertex 3.57371007049777e-013 49.6272000000001 9.99999999999953
endloop
endfacet
facet normal -0.978148719555311 -0.207906427106777 -2.83316969205036e-015
outer loop
vertex 0.130400000000011 -0.613500000000009 6.85187874177509e-015
vertex -4.91400916310492e-014 7.89590615113411e-014 10.0
vertex 1.18708343434187e-016 -1.12798659301916e-014 3.51896289882996e-016
endloop
endfacet
facet normal -0.978148719555311 -0.207906427106777 -2.83316969205036e-015
outer loop
vertex -4.91400916310492e-014 7.89590615113411e-014 10.0
vertex 0.130400000000011 -0.613500000000009 6.85187874177509e-015
vertex 0.130399999999962 -0.613499999999919 10.0
endloop
endfacet
facet normal -0.913534504214422 -0.406761243986826 -6.1623833333435e-016
outer loop
vertex 0.385489999999986 -1.18640000000002 1.35784236992709e-014
vertex 0.130399999999962 -0.613499999999919 10.0
vertex 0.130400000000011 -0.613500000000009 6.85187874177509e-015
endloop
endfacet
facet normal -0.913534504214422 -0.406761243986826 -6.1623833333435e-016
outer loop
vertex 0.130399999999962 -0.613499999999919 10.0
vertex 0.385489999999986 -1.18640000000002 1.35784236992709e-014
vertex 0.385489999999937 -1.18639999999993 10.0
endloop
endfacet
facet normal -0.809015234374104 -0.587787674718187 1.62703656590752e-015
outer loop
vertex 0.754139999999953 -1.69379999999994 10.0
vertex 0.385489999999986 -1.18640000000002 1.35784236992709e-014
vertex 0.754140000000002 -1.69380000000001 2.02389629595054e-014
endloop
endfacet
facet normal -0.809015234374104 -0.587787674718187 1.62703656590752e-015
outer loop
vertex 0.385489999999986 -1.18640000000002 1.35784236992709e-014
vertex 0.754139999999953 -1.69379999999994 10.0
vertex 0.385489999999937 -1.18639999999993 10.0
endloop
endfacet
facet normal -0.669173475922429 -0.743106223309894 3.79884905433435e-015
outer loop
vertex 1.22020999999999 -2.11350000000004 2.6542029039459e-014
vertex 0.754139999999953 -1.69379999999994 10.0
vertex 0.754140000000002 -1.69380000000001 2.02389629595054e-014
endloop
endfacet
facet normal -0.669173475922429 -0.743106223309894 3.79884905433435e-015
outer loop
vertex 0.754139999999953 -1.69379999999994 10.0
vertex 1.22020999999999 -2.11350000000004 2.6542029039459e-014
vertex 1.22020999999994 -2.11349999999996 10.0
endloop
endfacet
facet normal -0.499894995999731 -0.866086019385159 5.80689554261564e-015
outer loop
vertex 1.76335999999999 -2.42700000000002 3.22107930567648e-014
vertex 1.22020999999994 -2.11349999999996 10.0
vertex 1.22020999999999 -2.11350000000004 2.6542029039459e-014
endloop
endfacet
facet normal -0.499894995999731 -0.866086019385159 5.80689554261564e-015
outer loop
vertex 1.22020999999994 -2.11349999999996 10.0
vertex 1.76335999999999 -2.42700000000002 3.22107930567648e-014
vertex 1.76335999999994 -2.42699999999993 10.0
endloop
endfacet
facet normal -0.309005311959734 -0.95106031206263 7.55852279854067e-015
outer loop
vertex 2.35984 -2.62080000000009 3.69993684683255e-014
vertex 1.76335999999994 -2.42699999999993 10.0
vertex 1.76335999999999 -2.42700000000002 3.22107930567648e-014
endloop
endfacet
facet normal -0.309005311959734 -0.95106031206263 7.55852279854067e-015
outer loop
vertex 1.76335999999994 -2.42699999999993 10.0
vertex 2.35984 -2.62080000000009 3.69993684683255e-014
vertex 2.35983999999995 -2.62080000000001 10.0
endloop
endfacet
facet normal -0.104596804671138 -0.994514710023229 8.98031360488075e-015
outer loop
vertex 2.98356999999999 -2.68640000000007 4.06981310207065e-014
vertex 2.35983999999995 -2.62080000000001 10.0
vertex 2.35984 -2.62080000000009 3.69993684683255e-014
endloop
endfacet
facet normal -0.104596804671138 -0.994514710023229 8.98031360488075e-015
outer loop
vertex 2.35983999999995 -2.62080000000001 10.0
vertex 2.98356999999999 -2.68640000000007 4.06981310207065e-014
vertex 2.98356999999994 -2.68639999999998 10.0
endloop
endfacet
facet normal -8.19129627867029e-015 -1.0 9.54791801177631e-015
outer loop
vertex 13.98357 -2.68640000000016 9.4882810992639e-014
vertex 2.98356999999994 -2.68639999999998 10.0
vertex 2.98356999999999 -2.68640000000007 4.06981310207065e-014
endloop
endfacet
facet normal -8.19129627867029e-015 -1.0 9.54791801177631e-015
outer loop
vertex 2.98356999999994 -2.68639999999998 10.0
vertex 13.98357 -2.68640000000016 9.4882810992639e-014
vertex 13.9835699999999 -2.68640000000007 10.0000000000001
endloop
endfacet
facet normal 0.104596804671122 -0.994514710023231 1.00107762207338e-014
outer loop
vertex 14.6073 -2.62080000000019 9.73288867018752e-014
vertex 13.9835699999999 -2.68640000000007 10.0000000000001
vertex 13.98357 -2.68640000000016 9.4882810992639e-014
endloop
endfacet
facet normal 0.104596804671122 -0.994514710023231 1.00107762207338e-014
outer loop
vertex 13.9835699999999 -2.68640000000007 10.0000000000001
vertex 14.6073 -2.62080000000019 9.73288867018752e-014
vertex 14.6072999999999 -2.62080000000011 10.0000000000001
endloop
endfacet
facet normal 0.309005311959719 -0.951060312062635 1.06027689691161e-014
outer loop
vertex 15.20378 -2.42700000000013 9.84166890920704e-014
vertex 14.6072999999999 -2.62080000000011 10.0000000000001
vertex 14.6073 -2.62080000000019 9.73288867018752e-014
endloop
endfacet
facet normal 0.309005311959719 -0.951060312062635 1.06027689691161e-014
outer loop
vertex 14.6072999999999 -2.62080000000011 10.0000000000001
vertex 15.20378 -2.42700000000013 9.84166890920704e-014
vertex 15.2037799999999 -2.42700000000004 10.0000000000001
endloop
endfacet
facet normal 0.499894995999716 -0.866086019385167 1.07317410658548e-014
outer loop
vertex 15.74693 -2.11350000000015 9.80989085159931e-014
vertex 15.2037799999999 -2.42700000000004 10.0000000000001
vertex 15.20378 -2.42700000000013 9.84166890920704e-014
endloop
endfacet
facet normal 0.499894995999716 -0.866086019385167 1.07317410658548e-014
outer loop
vertex 15.2037799999999 -2.42700000000004 10.0000000000001
vertex 15.74693 -2.11350000000015 9.80989085159931e-014
vertex 15.7469299999999 -2.11350000000006 10.0000000000001
endloop
endfacet
facet normal 0.669173475922417 -0.743106223309905 1.0391385534073e-014
outer loop
vertex 16.213 -1.69380000000014 9.6387452216861e-014
vertex 15.7469299999999 -2.11350000000006 10.0000000000001
vertex 15.74693 -2.11350000000015 9.80989085159931e-014
endloop
endfacet
facet normal 0.669173475922417 -0.743106223309905 1.0391385534073e-014
outer loop
vertex 15.7469299999999 -2.11350000000006 10.0000000000001
vertex 16.213 -1.69380000000014 9.6387452216861e-014
vertex 16.213 -1.69380000000006 10.0000000000001
endloop
endfacet
facet normal 0.809015234374095 -0.5877876747182 9.59726048717638e-015
outer loop
vertex 16.58165 -1.18640000000016 9.33587642787454e-014
vertex 16.213 -1.69380000000006 10.0000000000001
vertex 16.213 -1.69380000000014 9.6387452216861e-014
endloop
endfacet
facet normal 0.809015234374095 -0.5877876747182 9.59726048717638e-015
outer loop
vertex 16.213 -1.69380000000006 10.0000000000001
vertex 16.58165 -1.18640000000016 9.33587642787454e-014
vertex 16.58165 -1.18640000000007 10.0000000000001
endloop
endfacet
facet normal 0.913534504214416 -0.406761243986841 8.3836843492432e-015
outer loop
vertex 16.83674 -0.613500000000054 10.0000000000001
vertex 16.58165 -1.18640000000016 9.33587642787454e-014
vertex 16.83674 -0.613500000000144 8.91453047783475e-014
endloop
endfacet
facet normal 0.913534504214416 -0.406761243986841 8.3836843492432e-015
outer loop
vertex 16.58165 -1.18640000000016 9.33587642787454e-014
vertex 16.83674 -0.613500000000054 10.0000000000001
vertex 16.58165 -1.18640000000007 10.0000000000001
endloop
endfacet
facet normal 0.978148719555308 -0.207906427106793 6.80331673232422e-015
outer loop
vertex 16.96714 -1.46638257092491e-013 8.39299918297901e-014
vertex 16.83674 -0.613500000000054 10.0000000000001
vertex 16.83674 -0.613500000000144 8.91453047783475e-014
endloop
endfacet
facet normal 0.978148719555308 -0.207906427106793 6.80331673232422e-015
outer loop
vertex 16.83674 -0.613500000000054 10.0000000000001
vertex 16.96714 -1.46638257092491e-013 8.39299918297901e-014
vertex 16.96714 -5.6399329650958e-014 10.0000000000001
endloop
endfacet
facet normal 1.0 -8.19129627867025e-015 4.92587999744843e-015
outer loop
vertex 16.9671400000004 49.6271999999998 -3.89906444924235e-013
vertex 16.96714 -5.6399329650958e-014 10.0000000000001
vertex 16.96714 -1.46638257092491e-013 8.39299918297901e-014
endloop
endfacet
facet normal 1.0 -8.19129627867025e-015 4.92587999744843e-015
outer loop
vertex 16.96714 -5.6399329650958e-014 10.0000000000001
vertex 16.9671400000004 49.6271999999998 -3.89906444924235e-013
vertex 16.9671400000004 49.6271999999999 9.99999999999961
endloop
endfacet
facet normal 0.978148719555311 0.207906427106777 2.83316969205036e-015
outer loop
vertex 16.8367400000004 50.2406999999999 9.99999999999961
vertex 16.9671400000004 49.6271999999998 -3.89906444924235e-013
vertex 16.8367400000004 50.2406999999998 -3.96406427376127e-013
endloop
endfacet
facet normal 0.978148719555311 0.207906427106777 2.83316969205036e-015
outer loop
vertex 16.9671400000004 49.6271999999998 -3.89906444924235e-013
vertex 16.8367400000004 50.2406999999999 9.99999999999961
vertex 16.9671400000004 49.6271999999999 9.99999999999961
endloop
endfacet
facet normal 0.913534504214422 0.406761243986826 6.1623833333435e-016
outer loop
vertex 16.5816500000004 50.8135999999999 9.9999999999996
vertex 16.8367400000004 50.2406999999998 -3.96406427376127e-013
vertex 16.5816500000004 50.8135999999998 -4.03132972333622e-013
endloop
endfacet
facet normal 0.913534504214422 0.406761243986826 6.1623833333435e-016
outer loop
vertex 16.8367400000004 50.2406999999998 -3.96406427376127e-013
vertex 16.5816500000004 50.8135999999999 9.9999999999996
vertex 16.8367400000004 50.2406999999999 9.99999999999961
endloop
endfacet
facet normal 0.809015234374104 0.587787674718187 -1.62703656590752e-015
outer loop
vertex 16.2130000000004 51.3209999999999 9.99999999999959
vertex 16.5816500000004 50.8135999999998 -4.03132972333622e-013
vertex 16.2130000000004 51.3209999999998 -4.09793511593857e-013
endloop
endfacet
facet normal 0.809015234374104 0.587787674718187 -1.62703656590752e-015
outer loop
vertex 16.5816500000004 50.8135999999998 -4.03132972333622e-013
vertex 16.2130000000004 51.3209999999999 9.99999999999959
vertex 16.5816500000004 50.8135999999999 9.9999999999996
endloop
endfacet
facet normal 0.669173475922429 0.743106223309894 -3.79884905433435e-015
outer loop
vertex 16.2130000000004 51.3209999999999 9.99999999999959
vertex 15.7469300000004 51.7406999999999 -4.16096577673811e-013
vertex 15.7469300000004 51.7406999999999 9.99999999999959
endloop
endfacet
facet normal 0.669173475922429 0.743106223309894 -3.79884905433435e-015
outer loop
vertex 15.7469300000004 51.7406999999999 -4.16096577673811e-013
vertex 16.2130000000004 51.3209999999999 9.99999999999959
vertex 16.2130000000004 51.3209999999998 -4.09793511593857e-013
endloop
endfacet
facet normal 0.499894995999731 0.866086019385159 -5.80689554261564e-015
outer loop
vertex 15.7469300000004 51.7406999999999 9.99999999999959
vertex 15.2037800000004 52.0541999999998 -4.21765341691116e-013
vertex 15.2037800000004 52.0541999999999 9.99999999999958
endloop
endfacet
facet normal 0.499894995999731 0.866086019385159 -5.80689554261564e-015
outer loop
vertex 15.2037800000004 52.0541999999998 -4.21765341691116e-013
vertex 15.7469300000004 51.7406999999999 9.99999999999959
vertex 15.7469300000004 51.7406999999999 -4.16096577673811e-013
endloop
endfacet
facet normal 0.309005311959734 0.95106031206263 -7.55852279854067e-015
outer loop
vertex 15.2037800000004 52.0541999999999 9.99999999999958
vertex 14.6073000000004 52.2479999999999 -4.26553917102677e-013
vertex 14.6073000000004 52.248 9.99999999999958
endloop
endfacet
facet normal 0.309005311959734 0.95106031206263 -7.55852279854067e-015
outer loop
vertex 14.6073000000004 52.2479999999999 -4.26553917102677e-013
vertex 15.2037800000004 52.0541999999999 9.99999999999958
vertex 15.2037800000004 52.0541999999998 -4.21765341691116e-013
endloop
endfacet
facet normal 0.258831455331797 -0.965922500892708 1.04975215327829e-014
outer loop
vertex 8.48357000000039 49.4735999999999 -4.30228932487579e-013
vertex 7.40357000000036 49.1841999999999 6.74999999999957
vertex 7.40357000000039 49.1841999999999 -4.32785715412215e-013
endloop
endfacet
facet normal 0.258831455331797 -0.965922500892708 1.04975215327829e-014
outer loop
vertex 7.40357000000036 49.1841999999999 6.74999999999957
vertex 8.48357000000039 49.4735999999999 -4.30228932487579e-013
vertex 8.48357000000035 49.4735999999999 6.74999999999957
endloop
endfacet
facet normal -0.258831455331813 -0.965922500892704 7.94757615572408e-015
outer loop
vertex 9.56357000000042 49.1841999999999 -4.22145814617727e-013
vertex 8.48357000000035 49.4735999999999 6.74999999999957
vertex 8.48357000000039 49.4735999999999 -4.30228932487579e-013
endloop
endfacet
facet normal -0.258831455331813 -0.965922500892704 7.94757615572408e-015
outer loop
vertex 8.48357000000035 49.4735999999999 6.74999999999957
vertex 9.56357000000042 49.1841999999999 -4.22145814617727e-013
vertex 9.56357000000038 49.1841999999999 6.74999999999958
endloop
endfacet
facet normal -0.707102309237748 -0.707111253107065 3.26833914864693e-015
outer loop
vertex 10.3541800000004 48.3935999999999 -4.10702780652834e-013
vertex 9.56357000000038 49.1841999999999 6.74999999999958
vertex 9.56357000000042 49.1841999999999 -4.22145814617727e-013
endloop
endfacet
facet normal -0.707102309237748 -0.707111253107065 3.26833914864693e-015
outer loop
vertex 9.56357000000038 49.1841999999999 6.74999999999958
vertex 10.3541800000004 48.3935999999999 -4.10702780652834e-013
vertex 10.3541800000004 48.3935999999999 6.74999999999959
endloop
endfacet
facet normal -0.965924736893069 -0.258823110749515 -2.28680749951284e-015
outer loop
vertex 10.6435700000004 47.3135999999999 6.7499999999996
vertex 10.3541800000004 48.3935999999999 -4.10702780652834e-013
vertex 10.6435700000004 47.3135999999999 -3.98965528787654e-013
endloop
endfacet
facet normal -0.965924736893069 -0.258823110749515 -2.28680749951284e-015
outer loop
vertex 10.3541800000004 48.3935999999999 -4.10702780652834e-013
vertex 10.6435700000004 47.3135999999999 6.7499999999996
vertex 10.3541800000004 48.3935999999999 6.74999999999959
endloop
endfacet
facet normal -0.965924736893064 0.258823110749531 -7.22925118149154e-015
outer loop
vertex 10.3541800000004 46.2335999999999 6.74999999999961
vertex 10.6435700000004 47.3135999999999 -3.98965528787654e-013
vertex 10.3541800000004 46.2335999999999 -3.90079277747397e-013
endloop
endfacet
facet normal -0.965924736893064 0.258823110749531 -7.22925118149154e-015
outer loop
vertex 10.6435700000004 47.3135999999999 -3.98965528787654e-013
vertex 10.3541800000004 46.2335999999999 6.74999999999961
vertex 10.6435700000004 47.3135999999999 6.7499999999996
endloop
endfacet
facet normal -0.707102309237736 0.707111253107077 -1.02345413910945e-014
outer loop
vertex 10.3541800000004 46.2335999999999 6.74999999999961
vertex 9.56357000000039 45.4429999999999 -3.86425143752069e-013
vertex 9.56357000000035 45.443 6.74999999999961
endloop
endfacet
facet normal -0.707102309237736 0.707111253107077 -1.02345413910945e-014
outer loop
vertex 9.56357000000039 45.4429999999999 -3.86425143752069e-013
vertex 10.3541800000004 46.2335999999999 6.74999999999961
vertex 10.3541800000004 46.2335999999999 -3.90079277747397e-013
endloop
endfacet
facet normal -0.258831455331797 0.965922500892708 -1.04975215327829e-014
outer loop
vertex 9.56357000000035 45.443 6.74999999999961
vertex 8.48357000000035 45.1535999999999 -3.88981926676706e-013
vertex 8.48357000000032 45.1536 6.74999999999961
endloop
endfacet
facet normal -0.258831455331797 0.965922500892708 -1.04975215327829e-014
outer loop
vertex 8.48357000000035 45.1535999999999 -3.88981926676706e-013
vertex 9.56357000000035 45.443 6.74999999999961
vertex 9.56357000000039 45.4429999999999 -3.86425143752069e-013
endloop
endfacet
facet normal 0.258831455331813 0.965922500892704 -7.94757615572408e-015
outer loop
vertex 8.48357000000032 45.1536 6.74999999999961
vertex 7.40357000000036 45.4429999999999 -3.97065044546558e-013
vertex 7.40357000000033 45.443 6.7499999999996
endloop
endfacet
facet normal 0.258831455331813 0.965922500892704 -7.94757615572408e-015
outer loop
vertex 7.40357000000036 45.4429999999999 -3.97065044546558e-013
vertex 8.48357000000032 45.1536 6.74999999999961
vertex 8.48357000000035 45.1535999999999 -3.88981926676706e-013
endloop
endfacet
facet normal 0.707102309237748 0.707111253107065 -3.26833914864693e-015
outer loop
vertex 7.40357000000033 45.443 6.7499999999996
vertex 6.61296000000038 46.2335999999999 -4.08508078511451e-013
vertex 6.61296000000034 46.2336 6.74999999999959
endloop
endfacet
facet normal 0.707102309237748 0.707111253107065 -3.26833914864693e-015
outer loop
vertex 6.61296000000038 46.2335999999999 -4.08508078511451e-013
vertex 7.40357000000033 45.443 6.7499999999996
vertex 7.40357000000036 45.4429999999999 -3.97065044546558e-013
endloop
endfacet
facet normal 0.965924736893069 0.258823110749515 2.28680749951284e-015
outer loop
vertex 6.32357000000039 47.3135999999999 -4.20245330376631e-013
vertex 6.61296000000034 46.2336 6.74999999999959
vertex 6.61296000000038 46.2335999999999 -4.08508078511451e-013
endloop
endfacet
facet normal 0.965924736893069 0.258823110749515 2.28680749951284e-015
outer loop
vertex 6.61296000000034 46.2336 6.74999999999959
vertex 6.32357000000039 47.3135999999999 -4.20245330376631e-013
vertex 6.32357000000036 47.3136 6.74999999999958
endloop
endfacet
facet normal 0.965924736893064 -0.258823110749531 7.22925118149154e-015
outer loop
vertex 6.61296000000036 48.3936 6.74999999999957
vertex 6.32357000000039 47.3135999999999 -4.20245330376631e-013
vertex 6.61296000000039 48.3935999999999 -4.29131581416888e-013
endloop
endfacet
facet normal 0.965924736893064 -0.258823110749531 7.22925118149154e-015
outer loop
vertex 6.32357000000039 47.3135999999999 -4.20245330376631e-013
vertex 6.61296000000036 48.3936 6.74999999999957
vertex 6.32357000000036 47.3136 6.74999999999958
endloop
endfacet
facet normal 0.707102309237736 -0.707111253107077 1.02345413910945e-014
outer loop
vertex 7.40357000000039 49.1841999999999 -4.32785715412215e-013
vertex 6.61296000000036 48.3936 6.74999999999957
vertex 6.61296000000039 48.3935999999999 -4.29131581416888e-013
endloop
endfacet
facet normal 0.707102309237736 -0.707111253107077 1.02345413910945e-014
outer loop
vertex 6.61296000000036 48.3936 6.74999999999957
vertex 7.40357000000039 49.1841999999999 -4.32785715412215e-013
vertex 7.40357000000036 49.1841999999999 6.74999999999957
endloop
endfacet
facet normal 0.258823110749515 -0.965924736893069 1.04975017775201e-014
outer loop
vertex 8.4835700000002 26.9735999999999 -2.15400777222613e-013
vertex 7.40357000000016 26.68421 9.99999999999979
vertex 7.40357000000021 26.6842099999999 -2.17957655626429e-013
endloop
endfacet
facet normal 0.258823110749515 -0.965924736893069 1.04975017775201e-014
outer loop
vertex 7.40357000000016 26.68421 9.99999999999979
vertex 8.4835700000002 26.9735999999999 -2.15400777222613e-013
vertex 8.48357000000015 26.9736 9.99999999999979
endloop
endfacet
facet normal -0.258823110749531 -0.965924736893065 7.94763860928315e-015
outer loop
vertex 9.56357000000023 26.6842099999999 -2.07317754831941e-013
vertex 8.48357000000015 26.9736 9.99999999999979
vertex 8.4835700000002 26.9735999999999 -2.15400777222613e-013
endloop
endfacet
facet normal -0.258823110749531 -0.965924736893065 7.94763860928315e-015
outer loop
vertex 8.48357000000015 26.9736 9.99999999999979
vertex 9.56357000000023 26.6842099999999 -2.07317754831941e-013
vertex 9.56357000000018 26.68421 9.9999999999998
endloop
endfacet
facet normal -0.707106781186553 -0.707106781186542 3.26827442283325e-015
outer loop
vertex 10.3541800000002 25.8935999999999 -1.95874625387868e-013
vertex 9.56357000000018 26.68421 9.9999999999998
vertex 9.56357000000023 26.6842099999999 -2.07317754831941e-013
endloop
endfacet
facet normal -0.707106781186553 -0.707106781186542 3.26827442283325e-015
outer loop
vertex 9.56357000000018 26.68421 9.9999999999998
vertex 10.3541800000002 25.8935999999999 -1.95874625387868e-013
vertex 10.3541800000002 25.8936 9.99999999999981
endloop
endfacet
facet normal -0.965924736893069 -0.258823110749515 -2.28680749951285e-015
outer loop
vertex 10.6435700000002 24.8135999999998 -1.84137373522687e-013
vertex 10.3541800000002 25.8936 9.99999999999981
vertex 10.3541800000002 25.8935999999999 -1.95874625387868e-013
endloop
endfacet
facet normal -0.965924736893069 -0.258823110749515 -2.28680749951285e-015
outer loop
vertex 10.3541800000002 25.8936 9.99999999999981
vertex 10.6435700000002 24.8135999999998 -1.84137373522687e-013
vertex 10.6435700000002 24.8135999999999 9.99999999999982
endloop
endfacet
facet normal -0.965924736893065 0.258823110749531 -7.22925118149153e-015
outer loop
vertex 10.3541800000002 23.7335999999999 9.99999999999983
vertex 10.6435700000002 24.8135999999998 -1.84137373522687e-013
vertex 10.3541800000002 23.7335999999999 -1.7525112248243e-013
endloop
endfacet
facet normal -0.965924736893065 0.258823110749531 -7.22925118149153e-015
outer loop
vertex 10.6435700000002 24.8135999999998 -1.84137373522687e-013
vertex 10.3541800000002 23.7335999999999 9.99999999999983
vertex 10.6435700000002 24.8135999999999 9.99999999999982
endloop
endfacet
facet normal -0.707106781186542 0.707106781186553 -1.02345207218472e-014
outer loop
vertex 10.3541800000002 23.7335999999999 9.99999999999983
vertex 9.5635700000002 22.9429899999999 -1.71596893007922e-013
vertex 9.56357000000015 22.94299 9.99999999999983
endloop
endfacet
facet normal -0.707106781186542 0.707106781186553 -1.02345207218472e-014
outer loop
vertex 9.5635700000002 22.9429899999999 -1.71596893007922e-013
vertex 10.3541800000002 23.7335999999999 9.99999999999983
vertex 10.3541800000002 23.7335999999999 -1.7525112248243e-013
endloop
endfacet
facet normal -0.258823110749515 0.965924736893069 -1.04975017775201e-014
outer loop
vertex 9.56357000000015 22.94299 9.99999999999983
vertex 8.48357000000017 22.6535999999999 -1.74153771411739e-013
vertex 8.48357000000012 22.6536 9.99999999999983
endloop
endfacet
facet normal -0.258823110749515 0.965924736893069 -1.04975017775201e-014
outer loop
vertex 8.48357000000017 22.6535999999999 -1.74153771411739e-013
vertex 9.56357000000015 22.94299 9.99999999999983
vertex 9.5635700000002 22.9429899999999 -1.71596893007922e-013
endloop
endfacet
facet normal 0.258823110749531 0.965924736893065 -7.94763860928315e-015
outer loop
vertex 8.48357000000012 22.6536 9.99999999999983
vertex 7.40357000000018 22.9429899999999 -1.82236793802411e-013
vertex 7.40357000000013 22.94299 9.99999999999982
endloop
endfacet
facet normal 0.258823110749531 0.965924736893065 -7.94763860928315e-015
outer loop
vertex 7.40357000000018 22.9429899999999 -1.82236793802411e-013
vertex 8.48357000000012 22.6536 9.99999999999983
vertex 8.48357000000017 22.6535999999999 -1.74153771411739e-013
endloop
endfacet
facet normal 0.707106781186553 0.707106781186542 -3.26827442283325e-015
outer loop
vertex 7.40357000000013 22.94299 9.99999999999982
vertex 6.61296000000019 23.7335999999999 -1.93679923246484e-013
vertex 6.61296000000014 23.7336 9.99999999999981
endloop
endfacet
facet normal 0.707106781186553 0.707106781186542 -3.26827442283325e-015
outer loop
vertex 6.61296000000019 23.7335999999999 -1.93679923246484e-013
vertex 7.40357000000013 22.94299 9.99999999999982
vertex 7.40357000000018 22.9429899999999 -1.82236793802411e-013
endloop
endfacet
facet normal 0.965924736893069 0.258823110749515 2.28680749951285e-015
outer loop
vertex 6.32357000000021 24.8135999999999 -2.05417175111664e-013
vertex 6.61296000000014 23.7336 9.99999999999981
vertex 6.61296000000019 23.7335999999999 -1.93679923246484e-013
endloop
endfacet
facet normal 0.965924736893069 0.258823110749515 2.28680749951285e-015
outer loop
vertex 6.61296000000014 23.7336 9.99999999999981
vertex 6.32357000000021 24.8135999999999 -2.05417175111664e-013
vertex 6.32357000000016 24.8136 9.9999999999998
endloop
endfacet
facet normal 0.965924736893065 -0.258823110749531 7.22925118149153e-015
outer loop
vertex 6.61296000000016 25.8936 9.99999999999979
vertex 6.32357000000021 24.8135999999999 -2.05417175111664e-013
vertex 6.61296000000021 25.8936 -2.14303426151922e-013
endloop
endfacet
facet normal 0.965924736893065 -0.258823110749531 7.22925118149153e-015
outer loop
vertex 6.32357000000021 24.8135999999999 -2.05417175111664e-013
vertex 6.61296000000016 25.8936 9.99999999999979
vertex 6.32357000000016 24.8136 9.9999999999998
endloop
endfacet
facet normal 0.707106781186542 -0.707106781186553 1.02345207218472e-014
outer loop
vertex 7.40357000000021 26.6842099999999 -2.17957655626429e-013
vertex 6.61296000000016 25.8936 9.99999999999979
vertex 6.61296000000021 25.8936 -2.14303426151922e-013
endloop
endfacet
facet normal 0.707106781186542 -0.707106781186553 1.02345207218472e-014
outer loop
vertex 6.61296000000016 25.8936 9.99999999999979
vertex 7.40357000000021 26.6842099999999 -2.17957655626429e-013
vertex 7.40357000000016 26.68421 9.99999999999979
endloop
endfacet
facet normal 0.258831455331797 -0.965922500892708 1.04975215327829e-014
outer loop
vertex 8.48357000000002 4.4735999999999 -5.72621957645837e-016
vertex 7.40356999999999 4.18419999999997 6.75
vertex 7.40357000000003 4.18419999999991 -3.12940488228201e-015
endloop
endfacet
facet normal 0.258831455331797 -0.965922500892708 1.04975215327829e-014
outer loop
vertex 7.40356999999999 4.18419999999997 6.75
vertex 8.48357000000002 4.4735999999999 -5.72621957645837e-016
vertex 8.48356999999998 4.47359999999996 6.75
endloop
endfacet
facet normal -0.258831455331813 -0.965922500892704 7.94757615572408e-015
outer loop
vertex 9.56357000000005 4.18419999999989 7.51049591220665e-015
vertex 8.48356999999998 4.47359999999996 6.75
vertex 8.48357000000002 4.4735999999999 -5.72621957645837e-016
endloop
endfacet
facet normal -0.258831455331813 -0.965922500892704 7.94757615572408e-015
outer loop
vertex 8.48356999999998 4.47359999999996 6.75
vertex 9.56357000000005 4.18419999999989 7.51049591220665e-015
vertex 9.56357000000001 4.18419999999996 6.75000000000001
endloop
endfacet
facet normal -0.707102309237748 -0.707111253107065 3.26833914864693e-015
outer loop
vertex 10.35418 3.3935999999999 1.89535298770996e-014
vertex 9.56357000000001 4.18419999999996 6.75000000000001
vertex 9.56357000000005 4.18419999999989 7.51049591220665e-015
endloop
endfacet
facet normal -0.707102309237748 -0.707111253107065 3.26833914864693e-015
outer loop
vertex 9.56357000000001 4.18419999999996 6.75000000000001
vertex 10.35418 3.3935999999999 1.89535298770996e-014
vertex 10.35418 3.39359999999996 6.75000000000002
endloop
endfacet
facet normal -0.965924736893069 -0.258823110749515 -2.28680749951284e-015
outer loop
vertex 10.64357 2.31359999999997 6.75000000000003
vertex 10.35418 3.3935999999999 1.89535298770996e-014
vertex 10.64357 2.31359999999991 3.06907817422795e-014
endloop
endfacet
facet normal -0.965924736893069 -0.258823110749515 -2.28680749951284e-015
outer loop
vertex 10.35418 3.3935999999999 1.89535298770996e-014
vertex 10.64357 2.31359999999997 6.75000000000003
vertex 10.35418 3.39359999999996 6.75000000000002
endloop
endfacet
facet normal -0.965924736893064 0.258823110749531 -7.22925118149154e-015
outer loop
vertex 10.35418 1.23359999999998 6.75000000000004
vertex 10.64357 2.31359999999991 3.06907817422795e-014
vertex 10.35418 1.23359999999991 3.95770327825361e-014
endloop
endfacet
facet normal -0.965924736893064 0.258823110749531 -7.22925118149154e-015
outer loop
vertex 10.64357 2.31359999999991 3.06907817422795e-014
vertex 10.35418 1.23359999999998 6.75000000000004
vertex 10.64357 2.31359999999997 6.75000000000003
endloop
endfacet
facet normal -0.707102309237736 0.707111253107077 -1.02345413910945e-014
outer loop
vertex 10.35418 1.23359999999998 6.75000000000004
vertex 9.56357000000002 0.442999999999932 4.32311667778638e-014
vertex 9.56356999999998 0.442999999999999 6.75000000000004
endloop
endfacet
facet normal -0.707102309237736 0.707111253107077 -1.02345413910945e-014
outer loop
vertex 9.56357000000002 0.442999999999932 4.32311667778638e-014
vertex 10.35418 1.23359999999998 6.75000000000004
vertex 10.35418 1.23359999999991 3.95770327825361e-014
endloop
endfacet
facet normal -0.258831455331797 0.965922500892708 -1.04975215327829e-014
outer loop
vertex 9.56356999999998 0.442999999999999 6.75000000000004
vertex 8.48356999999998 0.153599999999857 4.06743838532282e-014
vertex 8.48356999999995 0.153599999999924 6.75000000000004
endloop
endfacet
facet normal -0.258831455331797 0.965922500892708 -1.04975215327829e-014
outer loop
vertex 8.48356999999998 0.153599999999857 4.06743838532282e-014
vertex 9.56356999999998 0.442999999999999 6.75000000000004
vertex 9.56357000000002 0.442999999999932 4.32311667778638e-014
endloop
endfacet
facet normal 0.258831455331813 0.965922500892704 -7.94757615572408e-015
outer loop
vertex 8.48356999999995 0.153599999999924 6.75000000000004
vertex 7.40357 0.442999999999954 3.25912659833752e-014
vertex 7.40356999999996 0.443000000000033 6.75000000000003
endloop
endfacet
facet normal 0.258831455331813 0.965922500892704 -7.94757615572408e-015
outer loop
vertex 7.40357 0.442999999999954 3.25912659833752e-014
vertex 8.48356999999995 0.153599999999924 6.75000000000004
vertex 8.48356999999998 0.153599999999857 4.06743838532282e-014
endloop
endfacet
facet normal 0.707102309237748 0.707111253107065 -3.26833914864693e-015
outer loop
vertex 7.40356999999996 0.443000000000033 6.75000000000003
vertex 6.61296000000001 1.23359999999995 2.11482320184822e-014
vertex 6.61295999999997 1.23360000000001 6.75000000000002
endloop
endfacet
facet normal 0.707102309237748 0.707111253107065 -3.26833914864693e-015
outer loop
vertex 6.61296000000001 1.23359999999995 2.11482320184822e-014
vertex 7.40356999999996 0.443000000000033 6.75000000000003
vertex 7.40357 0.442999999999954 3.25912659833752e-014
endloop
endfacet
facet normal 0.965924736893069 0.258823110749515 2.28680749951284e-015
outer loop
vertex 6.32357000000002 2.31359999999994 9.4109801533024e-015
vertex 6.61295999999997 1.23360000000001 6.75000000000002
vertex 6.61296000000001 1.23359999999995 2.11482320184822e-014
endloop
endfacet
facet normal 0.965924736893069 0.258823110749515 2.28680749951284e-015
outer loop
vertex 6.61295999999997 1.23360000000001 6.75000000000002
vertex 6.32357000000002 2.31359999999994 9.4109801533024e-015
vertex 6.32356999999999 2.3136 6.75000000000001
endloop
endfacet
facet normal 0.965924736893064 -0.258823110749531 7.22925118149154e-015
outer loop
vertex 6.61295999999999 3.39359999999998 6.75
vertex 6.32357000000002 2.31359999999994 9.4109801533024e-015
vertex 6.61296000000002 3.39359999999993 5.24729113045583e-016
endloop
endfacet
facet normal 0.965924736893064 -0.258823110749531 7.22925118149154e-015
outer loop
vertex 6.32357000000002 2.31359999999994 9.4109801533024e-015
vertex 6.61295999999999 3.39359999999998 6.75
vertex 6.32356999999999 2.3136 6.75000000000001
endloop
endfacet
facet normal 0.707102309237736 -0.707111253107077 1.02345413910945e-014
outer loop
vertex 7.40357000000003 4.18419999999991 -3.12940488228201e-015
vertex 6.61295999999999 3.39359999999998 6.75
vertex 6.61296000000002 3.39359999999993 5.24729113045583e-016
endloop
endfacet
facet normal 0.707102309237736 -0.707111253107077 1.02345413910945e-014
outer loop
vertex 6.61295999999999 3.39359999999998 6.75
vertex 7.40357000000003 4.18419999999991 -3.12940488228201e-015
vertex 7.40356999999999 4.18419999999997 6.75
endloop
endfacet
facet normal -8.19129627867029e-015 -1.0 9.54791801177631e-015
outer loop
vertex 13.1132000000002 32.8136 9.99999999999976
vertex 3.85394000000017 32.8136000000002 22.9999999999997
vertex 3.85394000000023 32.8136 9.99999999999971
endloop
endfacet
facet normal -8.19129627867029e-015 -1.0 9.54791801177631e-015
outer loop
vertex 3.85394000000017 32.8136000000002 22.9999999999997
vertex 13.1132000000002 32.8136 9.99999999999976
vertex 13.1132000000002 32.8136000000001 22.9999999999998
endloop
endfacet
facet normal 1.0 -8.19129627867025e-015 4.92587999744843e-015
outer loop
vertex 13.1132000000002 40.9432000000001 22.9999999999997
vertex 13.1132000000002 32.8136 9.99999999999976
vertex 13.1132000000003 40.9432 9.99999999999968
endloop
endfacet
facet normal 1.0 -8.19129627867025e-015 4.92587999744843e-015
outer loop
vertex 13.1132000000002 32.8136 9.99999999999976
vertex 13.1132000000002 40.9432000000001 22.9999999999997
vertex 13.1132000000002 32.8136000000001 22.9999999999998
endloop
endfacet
facet normal 8.19129627867029e-015 1.0 -9.54791801177631e-015
outer loop
vertex 13.1132000000002 40.9432000000001 22.9999999999997
vertex 3.8539400000003 40.9432 9.99999999999963
vertex 3.85394000000024 40.9432000000002 22.9999999999996
endloop
endfacet
facet normal 8.19129627867029e-015 1.0 -9.54791801177631e-015
outer loop
vertex 3.8539400000003 40.9432 9.99999999999963
vertex 13.1132000000002 40.9432000000001 22.9999999999997
vertex 13.1132000000003 40.9432 9.99999999999968
endloop
endfacet
facet normal -1.0 8.19129627867025e-015 -4.92587999744843e-015
outer loop
vertex 3.85394000000017 32.8136000000002 22.9999999999997
vertex 3.8539400000003 40.9432 9.99999999999963
vertex 3.85394000000023 32.8136 9.99999999999971
endloop
endfacet
facet normal -1.0 8.19129627867025e-015 -4.92587999744843e-015
outer loop
vertex 3.8539400000003 40.9432 9.99999999999963
vertex 3.85394000000017 32.8136000000002 22.9999999999997
vertex 3.85394000000024 40.9432000000002 22.9999999999996
endloop
endfacet
facet normal 0.499999974374941 -0.866025418579073 1.07316795652055e-014
outer loop
vertex 8.48357000000037 51.6336 6.74999999999955
vertex 4.74234000000036 49.4736 9.99999999999956
vertex 4.74234000000038 49.4736 6.74999999999955
endloop
endfacet
facet normal 0.499999974374941 -0.866025418579073 1.07316795652055e-014
outer loop
vertex 4.74234000000036 49.4736 9.99999999999956
vertex 8.48357000000037 51.6336 6.74999999999955
vertex 8.48357000000035 51.6336 9.99999999999955
endloop
endfacet
facet normal 1.0 -8.19129627867025e-015 4.92587999744843e-015
outer loop
vertex 4.74234000000036 49.4736 9.99999999999956
vertex 4.74234000000035 45.1536 6.74999999999959
vertex 4.74234000000038 49.4736 6.74999999999955
endloop
endfacet
facet normal 1.0 -8.19129627867025e-015 4.92587999744843e-015
outer loop
vertex 4.74234000000035 45.1536 6.74999999999959
vertex 4.74234000000036 49.4736 9.99999999999956
vertex 4.74234000000033 45.1536 9.9999999999996
endloop
endfacet
facet normal 0.499999974374955 0.866025418579064 -5.80579982020892e-015
outer loop
vertex 8.48357000000028 42.9936 9.99999999999964
vertex 4.74234000000035 45.1536 6.74999999999959
vertex 4.74234000000033 45.1536 9.9999999999996
endloop
endfacet
facet normal 0.499999974374955 0.866025418579064 -5.80579982020892e-015
outer loop
vertex 4.74234000000035 45.1536 6.74999999999959
vertex 8.48357000000028 42.9936 9.99999999999964
vertex 8.4835700000003 42.9936 6.74999999999963
endloop
endfacet
facet normal -0.499999974374941 0.866025418579073 -1.07316795652055e-014
outer loop
vertex 12.2248000000003 45.1536 9.99999999999963
vertex 8.4835700000003 42.9936 6.74999999999963
vertex 8.48357000000028 42.9936 9.99999999999964
endloop
endfacet
facet normal -0.499999974374941 0.866025418579073 -1.07316795652055e-014
outer loop
vertex 8.4835700000003 42.9936 6.74999999999963
vertex 12.2248000000003 45.1536 9.99999999999963
vertex 12.2248000000003 45.1535999999999 6.74999999999963
endloop
endfacet
facet normal -1.0 8.19129627867025e-015 -4.92587999744843e-015
outer loop
vertex 12.2248000000003 45.1536 9.99999999999963
vertex 12.2248000000004 49.4735999999999 6.74999999999959
vertex 12.2248000000003 45.1535999999999 6.74999999999963
endloop
endfacet
facet normal -1.0 8.19129627867025e-015 -4.92587999744843e-015
outer loop
vertex 12.2248000000004 49.4735999999999 6.74999999999959
vertex 12.2248000000003 45.1536 9.99999999999963
vertex 12.2248000000004 49.4735999999999 9.99999999999959
endloop
endfacet
facet normal -0.499999974374955 -0.866025418579064 5.80579982020892e-015
outer loop
vertex 12.2248000000004 49.4735999999999 6.74999999999959
vertex 8.48357000000035 51.6336 9.99999999999955
vertex 8.48357000000037 51.6336 6.74999999999955
endloop
endfacet
facet normal -0.499999974374955 -0.866025418579064 5.80579982020892e-015
outer loop
vertex 8.48357000000035 51.6336 9.99999999999955
vertex 12.2248000000004 49.4735999999999 6.74999999999959
vertex 12.2248000000004 49.4735999999999 9.99999999999959
endloop
endfacet
facet normal -4.92587999744835e-015 9.54791801177635e-015 1.0
outer loop
vertex 2.3598400000004 52.2480000000001 9.99999999999952
vertex 13.9835700000004 52.3136 9.99999999999957
vertex 2.98357000000039 52.3136000000001 9.99999999999952
endloop
endfacet
facet normal -4.92587999744835e-015 9.54791801177635e-015 1.0
outer loop
vertex 13.9835700000004 52.3136 9.99999999999957
vertex 2.3598400000004 52.2480000000001 9.99999999999952
vertex 14.6073000000004 52.248 9.99999999999958
endloop
endfacet
facet normal -4.92587999744835e-015 9.54791801177635e-015 1.0
outer loop
vertex 14.6073000000004 52.248 9.99999999999958
vertex 2.3598400000004 52.2480000000001 9.99999999999952
vertex 1.76336000000038 52.0542 9.99999999999952
endloop
endfacet
facet normal -4.92587999744835e-015 9.54791801177635e-015 1.0
outer loop
vertex 14.6073000000004 52.248 9.99999999999958
vertex 1.76336000000038 52.0542 9.99999999999952
vertex 15.2037800000004 52.0541999999999 9.99999999999958
endloop
endfacet
facet normal -4.92587999744835e-015 9.54791801177635e-015 1.0
outer loop
vertex 15.2037800000004 52.0541999999999 9.99999999999958
vertex 1.76336000000038 52.0542 9.99999999999952
vertex 1.22021000000038 51.7407000000001 9.99999999999952
endloop
endfacet
facet normal -4.92587999744835e-015 9.54791801177635e-015 1.0
outer loop
vertex 15.2037800000004 52.0541999999999 9.99999999999958
vertex 1.22021000000038 51.7407000000001 9.99999999999952
vertex 15.7469300000004 51.7406999999999 9.99999999999959
endloop
endfacet
facet normal -4.92587999744835e-015 9.54791801177635e-015 1.0
outer loop
vertex 15.7469300000004 51.7406999999999 9.99999999999959
vertex 1.22021000000038 51.7407000000001 9.99999999999952
vertex 8.48357000000035 51.6336 9.99999999999955
endloop
endfacet
facet normal -4.92587999744835e-015 9.54791801177635e-015 1.0
outer loop
vertex 8.48357000000035 51.6336 9.99999999999955
vertex 1.22021000000038 51.7407000000001 9.99999999999952
vertex 0.754140000000387 51.3210000000001 9.99999999999952
endloop
endfacet
facet normal -4.92587999744835e-015 9.54791801177635e-015 1.0
outer loop
vertex 8.48357000000035 51.6336 9.99999999999955
vertex 0.754140000000387 51.3210000000001 9.99999999999952
vertex 4.74234000000036 49.4736 9.99999999999956
endloop
endfacet
facet normal -4.92587999744835e-015 9.54791801177635e-015 1.0
outer loop
vertex 4.74234000000036 49.4736 9.99999999999956
vertex 0.754140000000387 51.3210000000001 9.99999999999952
vertex 0.385490000000363 50.8136000000001 9.99999999999952
endloop
endfacet
facet normal -4.92587999744835e-015 9.54791801177635e-015 1.0
outer loop
vertex 4.74234000000036 49.4736 9.99999999999956
vertex 0.385490000000363 50.8136000000001 9.99999999999952
vertex 0.130400000000379 50.2407000000001 9.99999999999953
endloop
endfacet
facet normal -4.92587999744835e-015 9.54791801177635e-015 1.0
outer loop
vertex 4.74234000000036 49.4736 9.99999999999956
vertex 0.130400000000379 50.2407000000001 9.99999999999953
vertex 3.57371007049777e-013 49.6272000000001 9.99999999999953
endloop
endfacet
facet normal -4.92587999744835e-015 9.54791801177635e-015 1.0
outer loop
vertex 4.74234000000036 49.4736 9.99999999999956
vertex 3.57371007049777e-013 49.6272000000001 9.99999999999953
vertex 3.8539400000003 40.9432 9.99999999999963
endloop
endfacet
facet normal -4.92587999744835e-015 9.54791801177635e-015 1.0
outer loop
vertex 3.8539400000003 40.9432 9.99999999999963
vertex 3.57371007049777e-013 49.6272000000001 9.99999999999953
vertex -4.91400916310492e-014 7.89590615113411e-014 10.0
endloop
endfacet
facet normal -4.92587999744835e-015 9.54791801177635e-015 1.0
outer loop
vertex 4.74234000000036 49.4736 9.99999999999956
vertex 3.8539400000003 40.9432 9.99999999999963
vertex 4.74234000000033 45.1536 9.9999999999996
endloop
endfacet
facet normal -4.92587999744835e-015 9.54791801177635e-015 1.0
outer loop
vertex 4.74234000000033 45.1536 9.9999999999996
vertex 3.8539400000003 40.9432 9.99999999999963
vertex 8.48357000000028 42.9936 9.99999999999964
endloop
endfacet
facet normal -4.92587999744835e-015 9.54791801177635e-015 1.0
outer loop
vertex 3.8539400000003 40.9432 9.99999999999963
vertex -4.91400916310492e-014 7.89590615113411e-014 10.0
vertex 3.85394000000023 32.8136 9.99999999999971
endloop
endfacet
facet normal -4.92587999744835e-015 9.54791801177635e-015 1.0
outer loop
vertex 3.85394000000023 32.8136 9.99999999999971
vertex -4.91400916310492e-014 7.89590615113411e-014 10.0
vertex 3.8539400000001 16.8136 9.99999999999986
endloop
endfacet
facet normal -4.92587999744835e-015 9.54791801177635e-015 1.0
outer loop
vertex 3.85394000000023 32.8136 9.99999999999971
vertex 3.8539400000001 16.8136 9.99999999999986
vertex 6.61296000000016 25.8936 9.99999999999979
endloop
endfacet
facet normal -4.92587999744835e-015 9.54791801177635e-015 1.0
outer loop
vertex 3.85394000000023 32.8136 9.99999999999971
vertex 6.61296000000016 25.8936 9.99999999999979
vertex 13.1132000000002 32.8136 9.99999999999976
endloop
endfacet
facet normal -4.92587999744835e-015 9.54791801177635e-015 1.0
outer loop
vertex 13.1132000000002 32.8136 9.99999999999976
vertex 6.61296000000016 25.8936 9.99999999999979
vertex 7.40357000000016 26.68421 9.99999999999979
endloop
endfacet
facet normal -4.92587999744835e-015 9.54791801177635e-015 1.0
outer loop
vertex 13.1132000000002 32.8136 9.99999999999976
vertex 7.40357000000016 26.68421 9.99999999999979
vertex 8.48357000000015 26.9736 9.99999999999979
endloop
endfacet
facet normal -4.92587999744835e-015 9.54791801177635e-015 1.0
outer loop
vertex 6.61296000000016 25.8936 9.99999999999979
vertex 3.8539400000001 16.8136 9.99999999999986
vertex 6.32357000000016 24.8136 9.9999999999998
endloop
endfacet
facet normal -4.92587999744835e-015 9.54791801177635e-015 1.0
outer loop
vertex 6.32357000000016 24.8136 9.9999999999998
vertex 3.8539400000001 16.8136 9.99999999999986
vertex 6.61296000000014 23.7336 9.99999999999981
endloop
endfacet
facet normal -4.92587999744835e-015 9.54791801177635e-015 1.0
outer loop
vertex 6.61296000000014 23.7336 9.99999999999981
vertex 3.8539400000001 16.8136 9.99999999999986
vertex 7.40357000000013 22.94299 9.99999999999982
endloop
endfacet
facet normal -4.92587999744835e-015 9.54791801177635e-015 1.0
outer loop
vertex 7.40357000000013 22.94299 9.99999999999982
vertex 3.8539400000001 16.8136 9.99999999999986
vertex 8.48357000000012 22.6536 9.99999999999983
endloop
endfacet
facet normal -4.92587999744835e-015 9.54791801177635e-015 1.0
outer loop
vertex 3.8539400000001 16.8136 9.99999999999986
vertex -4.91400916310492e-014 7.89590615113411e-014 10.0
vertex 3.85394000000007 13.3136000000001 9.9999999999999
endloop
endfacet
facet normal -4.92587999744835e-015 9.54791801177635e-015 1.0
outer loop
vertex 3.85394000000007 13.3136000000001 9.9999999999999
vertex -4.91400916310492e-014 7.89590615113411e-014 10.0
vertex 8.48357000000005 8.684 9.99999999999996
endloop
endfacet
facet normal -4.92587999744835e-015 9.54791801177635e-015 1.0
outer loop
vertex 8.48357000000005 8.684 9.99999999999996
vertex -4.91400916310492e-014 7.89590615113411e-014 10.0
vertex 4.74234 4.47360000000003 9.99999999999999
endloop
endfacet
facet normal -4.92587999744835e-015 9.54791801177635e-015 1.0
outer loop
vertex 8.48357000000005 8.684 9.99999999999996
vertex 4.74234 4.47360000000003 9.99999999999999
vertex 8.48356999999999 6.63359999999998 9.99999999999998
endloop
endfacet
facet normal -4.92587999744835e-015 9.54791801177635e-015 1.0
outer loop
vertex 4.74234 4.47360000000003 9.99999999999999
vertex -4.91400916310492e-014 7.89590615113411e-014 10.0
vertex 4.74233999999996 0.153599999999981 10.0
endloop
endfacet
facet normal -4.92587999744835e-015 9.54791801177635e-015 1.0
outer loop
vertex 4.74233999999996 0.153599999999981 10.0
vertex -4.91400916310492e-014 7.89590615113411e-014 10.0
vertex 8.48356999999992 -2.00640000000003 10.0000000000001
endloop
endfacet
facet normal -4.92587999744835e-015 9.54791801177635e-015 1.0
outer loop
vertex 8.48356999999992 -2.00640000000003 10.0000000000001
vertex -4.91400916310492e-014 7.89590615113411e-014 10.0
vertex 0.130399999999962 -0.613499999999919 10.0
endloop
endfacet
facet normal -4.92587999744835e-015 9.54791801177635e-015 1.0
outer loop
vertex 8.48356999999992 -2.00640000000003 10.0000000000001
vertex 0.130399999999962 -0.613499999999919 10.0
vertex 0.385489999999937 -1.18639999999993 10.0
endloop
endfacet
facet normal -4.92587999744835e-015 9.54791801177635e-015 1.0
outer loop
vertex 8.48356999999992 -2.00640000000003 10.0000000000001
vertex 0.385489999999937 -1.18639999999993 10.0
vertex 0.754139999999953 -1.69379999999994 10.0
endloop
endfacet
facet normal -4.92587999744835e-015 9.54791801177635e-015 1.0
outer loop
vertex 8.48356999999992 -2.00640000000003 10.0000000000001
vertex 0.754139999999953 -1.69379999999994 10.0
vertex 1.22020999999994 -2.11349999999996 10.0
endloop
endfacet
facet normal -4.92587999744835e-015 9.54791801177635e-015 1.0
outer loop
vertex 8.48356999999992 -2.00640000000003 10.0000000000001
vertex 1.22020999999994 -2.11349999999996 10.0
vertex 15.7469299999999 -2.11350000000006 10.0000000000001
endloop
endfacet
facet normal -4.92587999744835e-015 9.54791801177635e-015 1.0
outer loop
vertex 15.7469299999999 -2.11350000000006 10.0000000000001
vertex 1.22020999999994 -2.11349999999996 10.0
vertex 15.2037799999999 -2.42700000000004 10.0000000000001
endloop
endfacet
facet normal -4.92587999744835e-015 9.54791801177635e-015 1.0
outer loop
vertex 15.2037799999999 -2.42700000000004 10.0000000000001
vertex 1.22020999999994 -2.11349999999996 10.0
vertex 1.76335999999994 -2.42699999999993 10.0
endloop
endfacet
facet normal -4.92587999744835e-015 9.54791801177635e-015 1.0
outer loop
vertex 15.2037799999999 -2.42700000000004 10.0000000000001
vertex 1.76335999999994 -2.42699999999993 10.0
vertex 2.35983999999995 -2.62080000000001 10.0
endloop
endfacet
facet normal -4.92587999744835e-015 9.54791801177635e-015 1.0
outer loop
vertex 15.2037799999999 -2.42700000000004 10.0000000000001
vertex 2.35983999999995 -2.62080000000001 10.0
vertex 14.6072999999999 -2.62080000000011 10.0000000000001
endloop
endfacet
facet normal -4.92587999744835e-015 9.54791801177635e-015 1.0
outer loop
vertex 14.6072999999999 -2.62080000000011 10.0000000000001
vertex 2.35983999999995 -2.62080000000001 10.0
vertex 2.98356999999994 -2.68639999999998 10.0
endloop
endfacet
facet normal -4.92587999744835e-015 9.54791801177635e-015 1.0
outer loop
vertex 14.6072999999999 -2.62080000000011 10.0000000000001
vertex 2.98356999999994 -2.68639999999998 10.0
vertex 13.9835699999999 -2.68640000000007 10.0000000000001
endloop
endfacet
facet normal -4.92587999744835e-015 9.54791801177635e-015 1.0
outer loop
vertex 8.48357000000035 51.6336 9.99999999999955
vertex 16.2130000000004 51.3209999999999 9.99999999999959
vertex 15.7469300000004 51.7406999999999 9.99999999999959
endloop
endfacet
facet normal -4.92587999744835e-015 9.54791801177635e-015 1.0
outer loop
vertex 16.2130000000004 51.3209999999999 9.99999999999959
vertex 8.48357000000035 51.6336 9.99999999999955
vertex 12.2248000000004 49.4735999999999 9.99999999999959
endloop
endfacet
facet normal -4.92587999744835e-015 9.54791801177635e-015 1.0
outer loop
vertex 16.2130000000004 51.3209999999999 9.99999999999959
vertex 12.2248000000004 49.4735999999999 9.99999999999959
vertex 16.5816500000004 50.8135999999999 9.9999999999996
endloop
endfacet
facet normal -4.92587999744835e-015 9.54791801177635e-015 1.0
outer loop
vertex 16.5816500000004 50.8135999999999 9.9999999999996
vertex 12.2248000000004 49.4735999999999 9.99999999999959
vertex 16.8367400000004 50.2406999999999 9.99999999999961
endloop
endfacet
facet normal -4.92587999744835e-015 9.54791801177635e-015 1.0
outer loop
vertex 16.8367400000004 50.2406999999999 9.99999999999961
vertex 12.2248000000004 49.4735999999999 9.99999999999959
vertex 16.9671400000004 49.6271999999999 9.99999999999961
endloop
endfacet
facet normal -4.92587999744835e-015 9.54791801177635e-015 1.0
outer loop
vertex 16.9671400000004 49.6271999999999 9.99999999999961
vertex 12.2248000000004 49.4735999999999 9.99999999999959
vertex 13.1132000000003 40.9432 9.99999999999968
endloop
endfacet
facet normal -4.92587999744835e-015 9.54791801177635e-015 1.0
outer loop
vertex 16.9671400000004 49.6271999999999 9.99999999999961
vertex 13.1132000000003 40.9432 9.99999999999968
vertex 16.96714 -5.6399329650958e-014 10.0000000000001
endloop
endfacet
facet normal -4.92587999744835e-015 9.54791801177635e-015 1.0
outer loop
vertex 13.1132000000003 40.9432 9.99999999999968
vertex 12.2248000000004 49.4735999999999 9.99999999999959
vertex 12.2248000000003 45.1536 9.99999999999963
endloop
endfacet
facet normal -4.92587999744835e-015 9.54791801177635e-015 1.0
outer loop
vertex 13.1132000000003 40.9432 9.99999999999968
vertex 12.2248000000003 45.1536 9.99999999999963
vertex 8.48357000000028 42.9936 9.99999999999964
endloop
endfacet
facet normal -4.92587999744835e-015 9.54791801177635e-015 1.0
outer loop
vertex 13.1132000000003 40.9432 9.99999999999968
vertex 8.48357000000028 42.9936 9.99999999999964
vertex 3.8539400000003 40.9432 9.99999999999963
endloop
endfacet
facet normal -4.92587999744835e-015 9.54791801177635e-015 1.0
outer loop
vertex 16.96714 -5.6399329650958e-014 10.0000000000001
vertex 13.1132000000003 40.9432 9.99999999999968
vertex 13.1132000000002 32.8136 9.99999999999976
endloop
endfacet
facet normal -4.92587999744835e-015 9.54791801177635e-015 1.0
outer loop
vertex 16.96714 -5.6399329650958e-014 10.0000000000001
vertex 13.1132000000002 32.8136 9.99999999999976
vertex 13.1132000000001 16.8136 9.99999999999991
endloop
endfacet
facet normal -4.92587999744835e-015 9.54791801177635e-015 1.0
outer loop
vertex 13.1132000000001 16.8136 9.99999999999991
vertex 13.1132000000002 32.8136 9.99999999999976
vertex 10.3541800000002 25.8936 9.99999999999981
endloop
endfacet
facet normal -4.92587999744835e-015 9.54791801177635e-015 1.0
outer loop
vertex 10.3541800000002 25.8936 9.99999999999981
vertex 13.1132000000002 32.8136 9.99999999999976
vertex 9.56357000000018 26.68421 9.9999999999998
endloop
endfacet
facet normal -4.92587999744835e-015 9.54791801177635e-015 1.0
outer loop
vertex 9.56357000000018 26.68421 9.9999999999998
vertex 13.1132000000002 32.8136 9.99999999999976
vertex 8.48357000000015 26.9736 9.99999999999979
endloop
endfacet
facet normal -4.92587999744835e-015 9.54791801177635e-015 1.0
outer loop
vertex 13.1132000000001 16.8136 9.99999999999991
vertex 10.3541800000002 25.8936 9.99999999999981
vertex 10.6435700000002 24.8135999999999 9.99999999999982
endloop
endfacet
facet normal -4.92587999744835e-015 9.54791801177635e-015 1.0
outer loop
vertex 13.1132000000001 16.8136 9.99999999999991
vertex 10.6435700000002 24.8135999999999 9.99999999999982
vertex 10.3541800000002 23.7335999999999 9.99999999999983
endloop
endfacet
facet normal -4.92587999744835e-015 9.54791801177635e-015 1.0
outer loop
vertex 13.1132000000001 16.8136 9.99999999999991
vertex 10.3541800000002 23.7335999999999 9.99999999999983
vertex 9.56357000000015 22.94299 9.99999999999983
endloop
endfacet
facet normal -4.92587999744835e-015 9.54791801177635e-015 1.0
outer loop
vertex 13.1132000000001 16.8136 9.99999999999991
vertex 9.56357000000015 22.94299 9.99999999999983
vertex 8.48357000000012 22.6536 9.99999999999983
endloop
endfacet
facet normal -4.92587999744835e-015 9.54791801177635e-015 1.0
outer loop
vertex 13.1132000000001 16.8136 9.99999999999991
vertex 8.48357000000012 22.6536 9.99999999999983
vertex 3.8539400000001 16.8136 9.99999999999986
endloop
endfacet
facet normal -4.92587999744835e-015 9.54791801177635e-015 1.0
outer loop
vertex 16.96714 -5.6399329650958e-014 10.0000000000001
vertex 13.1132000000001 16.8136 9.99999999999991
vertex 13.1132000000001 13.3136 9.99999999999994
endloop
endfacet
facet normal -4.92587999744835e-015 9.54791801177635e-015 1.0
outer loop
vertex 16.96714 -5.6399329650958e-014 10.0000000000001
vertex 13.1132000000001 13.3136 9.99999999999994
vertex 8.48357000000005 8.684 9.99999999999996
endloop
endfacet
facet normal -4.92587999744835e-015 9.54791801177635e-015 1.0
outer loop
vertex 16.96714 -5.6399329650958e-014 10.0000000000001
vertex 8.48357000000005 8.684 9.99999999999996
vertex 12.2248 4.47359999999996 10.0
endloop
endfacet
facet normal -4.92587999744835e-015 9.54791801177635e-015 1.0
outer loop
vertex 12.2248 4.47359999999996 10.0
vertex 8.48357000000005 8.684 9.99999999999996
vertex 8.48356999999999 6.63359999999998 9.99999999999998
endloop
endfacet
facet normal -4.92587999744835e-015 9.54791801177635e-015 1.0
outer loop
vertex 16.96714 -5.6399329650958e-014 10.0000000000001
vertex 12.2248 4.47359999999996 10.0
vertex 12.2248 0.153599999999902 10.0000000000001
endloop
endfacet
facet normal -4.92587999744835e-015 9.54791801177635e-015 1.0
outer loop
vertex 16.96714 -5.6399329650958e-014 10.0000000000001
vertex 12.2248 0.153599999999902 10.0000000000001
vertex 8.48356999999992 -2.00640000000003 10.0000000000001
endloop
endfacet
facet normal -4.92587999744835e-015 9.54791801177635e-015 1.0
outer loop
vertex 16.96714 -5.6399329650958e-014 10.0000000000001
vertex 8.48356999999992 -2.00640000000003 10.0000000000001
vertex 16.83674 -0.613500000000054 10.0000000000001
endloop
endfacet
facet normal -4.92587999744835e-015 9.54791801177635e-015 1.0
outer loop
vertex 16.83674 -0.613500000000054 10.0000000000001
vertex 8.48356999999992 -2.00640000000003 10.0000000000001
vertex 16.58165 -1.18640000000007 10.0000000000001
endloop
endfacet
facet normal -4.92587999744835e-015 9.54791801177635e-015 1.0
outer loop
vertex 16.58165 -1.18640000000007 10.0000000000001
vertex 8.48356999999992 -2.00640000000003 10.0000000000001
vertex 16.213 -1.69380000000006 10.0000000000001
endloop
endfacet
facet normal -4.92587999744835e-015 9.54791801177635e-015 1.0
outer loop
vertex 16.213 -1.69380000000006 10.0000000000001
vertex 8.48356999999992 -2.00640000000003 10.0000000000001
vertex 15.7469299999999 -2.11350000000006 10.0000000000001
endloop
endfacet
facet normal -4.92587999744835e-015 9.54791801177635e-015 1.0
outer loop
vertex 4.74234000000038 49.4736 6.74999999999955
vertex 12.2248000000004 49.4735999999999 6.74999999999959
vertex 8.48357000000037 51.6336 6.74999999999955
endloop
endfacet
facet normal -4.92587999744835e-015 9.54791801177635e-015 1.0
outer loop
vertex 12.2248000000004 49.4735999999999 6.74999999999959
vertex 4.74234000000038 49.4736 6.74999999999955
vertex 8.48357000000035 49.4735999999999 6.74999999999957
endloop
endfacet
facet normal -4.92587999744835e-015 9.54791801177635e-015 1.0
outer loop
vertex 8.48357000000035 49.4735999999999 6.74999999999957
vertex 4.74234000000038 49.4736 6.74999999999955
vertex 7.40357000000036 49.1841999999999 6.74999999999957
endloop
endfacet
facet normal -4.92587999744835e-015 9.54791801177635e-015 1.0
outer loop
vertex 7.40357000000036 49.1841999999999 6.74999999999957
vertex 4.74234000000038 49.4736 6.74999999999955
vertex 6.61296000000036 48.3936 6.74999999999957
endloop
endfacet
facet normal -4.92587999744835e-015 9.54791801177635e-015 1.0
outer loop
vertex 6.61296000000036 48.3936 6.74999999999957
vertex 4.74234000000038 49.4736 6.74999999999955
vertex 4.74234000000035 45.1536 6.74999999999959
endloop
endfacet
facet normal -4.92587999744835e-015 9.54791801177635e-015 1.0
outer loop
vertex 6.61296000000036 48.3936 6.74999999999957
vertex 4.74234000000035 45.1536 6.74999999999959
vertex 6.32357000000036 47.3136 6.74999999999958
endloop
endfacet
facet normal -4.92587999744835e-015 9.54791801177635e-015 1.0
outer loop
vertex 6.32357000000036 47.3136 6.74999999999958
vertex 4.74234000000035 45.1536 6.74999999999959
vertex 6.61296000000034 46.2336 6.74999999999959
endloop
endfacet
facet normal -4.92587999744835e-015 9.54791801177635e-015 1.0
outer loop
vertex 6.61296000000034 46.2336 6.74999999999959
vertex 4.74234000000035 45.1536 6.74999999999959
vertex 7.40357000000033 45.443 6.7499999999996
endloop
endfacet
facet normal -4.92587999744835e-015 9.54791801177635e-015 1.0
outer loop
vertex 7.40357000000033 45.443 6.7499999999996
vertex 4.74234000000035 45.1536 6.74999999999959
vertex 8.48357000000032 45.1536 6.74999999999961
endloop
endfacet
facet normal -4.92587999744835e-015 9.54791801177635e-015 1.0
outer loop
vertex 8.48357000000032 45.1536 6.74999999999961
vertex 4.74234000000035 45.1536 6.74999999999959
vertex 8.4835700000003 42.9936 6.74999999999963
endloop
endfacet
facet normal -4.92587999744835e-015 9.54791801177635e-015 1.0
outer loop
vertex 12.2248000000004 49.4735999999999 6.74999999999959
vertex 10.3541800000004 48.3935999999999 6.74999999999959
vertex 12.2248000000003 45.1535999999999 6.74999999999963
endloop
endfacet
facet normal -4.92587999744835e-015 9.54791801177635e-015 1.0
outer loop
vertex 10.3541800000004 48.3935999999999 6.74999999999959
vertex 12.2248000000004 49.4735999999999 6.74999999999959
vertex 9.56357000000038 49.1841999999999 6.74999999999958
endloop
endfacet
facet normal -4.92587999744835e-015 9.54791801177635e-015 1.0
outer loop
vertex 9.56357000000038 49.1841999999999 6.74999999999958
vertex 12.2248000000004 49.4735999999999 6.74999999999959
vertex 8.48357000000035 49.4735999999999 6.74999999999957
endloop
endfacet
facet normal -4.92587999744835e-015 9.54791801177635e-015 1.0
outer loop
vertex 12.2248000000003 45.1535999999999 6.74999999999963
vertex 10.3541800000004 48.3935999999999 6.74999999999959
vertex 10.6435700000004 47.3135999999999 6.7499999999996
endloop
endfacet
facet normal -4.92587999744835e-015 9.54791801177635e-015 1.0
outer loop
vertex 12.2248000000003 45.1535999999999 6.74999999999963
vertex 10.6435700000004 47.3135999999999 6.7499999999996
vertex 10.3541800000004 46.2335999999999 6.74999999999961
endloop
endfacet
facet normal -4.92587999744835e-015 9.54791801177635e-015 1.0
outer loop
vertex 12.2248000000003 45.1535999999999 6.74999999999963
vertex 10.3541800000004 46.2335999999999 6.74999999999961
vertex 9.56357000000035 45.443 6.74999999999961
endloop
endfacet
facet normal -4.92587999744835e-015 9.54791801177635e-015 1.0
outer loop
vertex 12.2248000000003 45.1535999999999 6.74999999999963
vertex 9.56357000000035 45.443 6.74999999999961
vertex 8.48357000000032 45.1536 6.74999999999961
endloop
endfacet
facet normal -4.92587999744835e-015 9.54791801177635e-015 1.0
outer loop
vertex 12.2248000000003 45.1535999999999 6.74999999999963
vertex 8.48357000000032 45.1536 6.74999999999961
vertex 8.4835700000003 42.9936 6.74999999999963
endloop
endfacet
facet normal 8.19129627867029e-015 1.0 -9.54791801177631e-015
outer loop
vertex 13.9835700000004 52.3136 9.99999999999957
vertex 2.98357000000044 52.3136 -4.84437359626991e-013
vertex 2.98357000000039 52.3136000000001 9.99999999999952
endloop
endfacet
facet normal 8.19129627867029e-015 1.0 -9.54791801177631e-015
outer loop
vertex 2.98357000000044 52.3136 -4.84437359626991e-013
vertex 13.9835700000004 52.3136 9.99999999999957
vertex 13.9835700000004 52.3135999999999 -4.30252679655058e-013
endloop
endfacet
facet normal -0.104596804671122 0.994514710023231 -1.00107762207338e-014
outer loop
vertex 2.98357000000039 52.3136000000001 9.99999999999952
vertex 2.35984000000045 52.248 -4.86883435336227e-013
vertex 2.3598400000004 52.2480000000001 9.99999999999952
endloop
endfacet
facet normal -0.104596804671122 0.994514710023231 -1.00107762207338e-014
outer loop
vertex 2.35984000000045 52.248 -4.86883435336227e-013
vertex 2.98357000000039 52.3136000000001 9.99999999999952
vertex 2.98357000000044 52.3136 -4.84437359626991e-013
endloop
endfacet
facet normal 4.92587999744835e-015 -9.54791801177635e-015 -1.0
outer loop
vertex 14.6073000000004 52.2479999999999 -4.26553917102677e-013
vertex 2.98357000000044 52.3136 -4.84437359626991e-013
vertex 13.9835700000004 52.3135999999999 -4.30252679655058e-013
endloop
endfacet
facet normal 4.92587999744835e-015 -9.54791801177635e-015 -1.0
outer loop
vertex 2.98357000000044 52.3136 -4.84437359626991e-013
vertex 14.6073000000004 52.2479999999999 -4.26553917102677e-013
vertex 2.35984000000045 52.248 -4.86883435336227e-013
endloop
endfacet
facet normal 4.92587999744835e-015 -9.54791801177635e-015 -1.0
outer loop
vertex 2.35984000000045 52.248 -4.86883435336227e-013
vertex 14.6073000000004 52.2479999999999 -4.26553917102677e-013
vertex 15.2037800000004 52.0541999999998 -4.21765341691116e-013
endloop
endfacet
facet normal 4.92587999744835e-015 -9.54791801177635e-015 -1.0
outer loop
vertex 2.35984000000045 52.248 -4.86883435336227e-013
vertex 15.2037800000004 52.0541999999998 -4.21765341691116e-013
vertex 1.76336000000043 52.0541999999999 -4.87971237726422e-013
endloop
endfacet
facet normal 4.92587999744835e-015 -9.54791801177635e-015 -1.0
outer loop
vertex 1.76336000000043 52.0541999999999 -4.87971237726422e-013
vertex 15.2037800000004 52.0541999999998 -4.21765341691116e-013
vertex 15.7469300000004 51.7406999999999 -4.16096577673811e-013
endloop
endfacet
facet normal 4.92587999744835e-015 -9.54791801177635e-015 -1.0
outer loop
vertex 1.76336000000043 52.0541999999999 -4.87971237726422e-013
vertex 15.7469300000004 51.7406999999999 -4.16096577673811e-013
vertex 1.22021000000043 51.7407 -4.87653457150344e-013
endloop
endfacet
facet normal 4.92587999744835e-015 -9.54791801177635e-015 -1.0
outer loop
vertex 1.22021000000043 51.7407 -4.87653457150344e-013
vertex 15.7469300000004 51.7406999999999 -4.16096577673811e-013
vertex 16.2130000000004 51.3209999999998 -4.09793511593857e-013
endloop
endfacet
facet normal 4.92587999744835e-015 -9.54791801177635e-015 -1.0
outer loop
vertex 1.22021000000043 51.7407 -4.87653457150344e-013
vertex 16.2130000000004 51.3209999999998 -4.09793511593857e-013
vertex 0.754140000000436 51.3209999999999 -4.85942000851213e-013
endloop
endfacet
facet normal 4.92587999744835e-015 -9.54791801177635e-015 -1.0
outer loop
vertex 0.754140000000436 51.3209999999999 -4.85942000851213e-013
vertex 16.2130000000004 51.3209999999998 -4.09793511593857e-013
vertex 16.5816500000004 50.8135999999998 -4.03132972333622e-013
endloop
endfacet
facet normal 4.92587999744835e-015 -9.54791801177635e-015 -1.0
outer loop
vertex 0.754140000000436 51.3209999999999 -4.85942000851213e-013
vertex 16.5816500000004 50.8135999999998 -4.03132972333622e-013
vertex 0.385490000000412 50.8136 -4.82913312913097e-013
endloop
endfacet
facet normal 4.92587999744835e-015 -9.54791801177635e-015 -1.0
outer loop
vertex 0.385490000000412 50.8136 -4.82913312913097e-013
vertex 16.5816500000004 50.8135999999998 -4.03132972333622e-013
vertex 16.8367400000004 50.2406999999998 -3.96406427376127e-013
endloop
endfacet
facet normal 4.92587999744835e-015 -9.54791801177635e-015 -1.0
outer loop
vertex 0.385490000000412 50.8136 -4.82913312913097e-013
vertex 16.8367400000004 50.2406999999998 -3.96406427376127e-013
vertex 0.130400000000428 50.2407 -4.78699853412699e-013
endloop
endfacet
facet normal 4.92587999744835e-015 -9.54791801177635e-015 -1.0
outer loop
vertex 0.130400000000428 50.2407 -4.78699853412699e-013
vertex 16.8367400000004 50.2406999999998 -3.96406427376127e-013
vertex 16.9671400000004 49.6271999999998 -3.89906444924235e-013
endloop
endfacet
facet normal 4.92587999744835e-015 -9.54791801177635e-015 -1.0
outer loop
vertex 0.130400000000428 50.2407 -4.78699853412699e-013
vertex 16.9671400000004 49.6271999999998 -3.89906444924235e-013
vertex 4.0662980702426e-013 49.6272 -4.73484540464142e-013
endloop
endfacet
facet normal 4.92587999744835e-015 -9.54791801177635e-015 -1.0
outer loop
vertex 4.0662980702426e-013 49.6272 -4.73484540464142e-013
vertex 16.9671400000004 49.6271999999998 -3.89906444924235e-013
vertex 8.48357000000039 49.4735999999999 -4.30228932487579e-013
endloop
endfacet
facet normal 4.92587999744835e-015 -9.54791801177635e-015 -1.0
outer loop
vertex 8.48357000000039 49.4735999999999 -4.30228932487579e-013
vertex 16.9671400000004 49.6271999999998 -3.89906444924235e-013
vertex 9.56357000000042 49.1841999999999 -4.22145814617727e-013
endloop
endfacet
facet normal 4.92587999744835e-015 -9.54791801177635e-015 -1.0
outer loop
vertex 9.56357000000042 49.1841999999999 -4.22145814617727e-013
vertex 16.9671400000004 49.6271999999998 -3.89906444924235e-013
vertex 10.3541800000004 48.3935999999999 -4.10702780652834e-013
endloop
endfacet
facet normal 4.92587999744835e-015 -9.54791801177635e-015 -1.0
outer loop
vertex 10.3541800000004 48.3935999999999 -4.10702780652834e-013
vertex 16.9671400000004 49.6271999999998 -3.89906444924235e-013
vertex 10.6435700000004 47.3135999999999 -3.98965528787654e-013
endloop
endfacet
facet normal 4.92587999744835e-015 -9.54791801177635e-015 -1.0
outer loop
vertex 10.6435700000004 47.3135999999999 -3.98965528787654e-013
vertex 16.9671400000004 49.6271999999998 -3.89906444924235e-013
vertex 16.96714 -1.46638257092491e-013 8.39299918297901e-014
endloop
endfacet
facet normal 4.92587999744835e-015 -9.54791801177635e-015 -1.0
outer loop
vertex 10.6435700000004 47.3135999999999 -3.98965528787654e-013
vertex 16.96714 -1.46638257092491e-013 8.39299918297901e-014
vertex 10.3541800000004 46.2335999999999 -3.90079277747397e-013
endloop
endfacet
facet normal 4.92587999744835e-015 -9.54791801177635e-015 -1.0
outer loop
vertex 10.3541800000004 46.2335999999999 -3.90079277747397e-013
vertex 16.96714 -1.46638257092491e-013 8.39299918297901e-014
vertex 9.56357000000039 45.4429999999999 -3.86425143752069e-013
endloop
endfacet
facet normal 4.92587999744835e-015 -9.54791801177635e-015 -1.0
outer loop
vertex 9.56357000000039 45.4429999999999 -3.86425143752069e-013
vertex 16.96714 -1.46638257092491e-013 8.39299918297901e-014
vertex 8.48357000000035 45.1535999999999 -3.88981926676706e-013
endloop
endfacet
facet normal 4.92587999744835e-015 -9.54791801177635e-015 -1.0
outer loop
vertex 8.48357000000035 45.1535999999999 -3.88981926676706e-013
vertex 16.96714 -1.46638257092491e-013 8.39299918297901e-014
vertex 10.6435700000002 24.8135999999998 -1.84137373522687e-013
endloop
endfacet
facet normal 4.92587999744835e-015 -9.54791801177635e-015 -1.0
outer loop
vertex 8.48357000000035 45.1535999999999 -3.88981926676706e-013
vertex 10.6435700000002 24.8135999999998 -1.84137373522687e-013
vertex 10.3541800000002 25.8935999999999 -1.95874625387868e-013
endloop
endfacet
facet normal 4.92587999744835e-015 -9.54791801177635e-015 -1.0
outer loop
vertex 8.48357000000035 45.1535999999999 -3.88981926676706e-013
vertex 10.3541800000002 25.8935999999999 -1.95874625387868e-013
vertex 9.56357000000023 26.6842099999999 -2.07317754831941e-013
endloop
endfacet
facet normal 4.92587999744835e-015 -9.54791801177635e-015 -1.0
outer loop
vertex 8.48357000000035 45.1535999999999 -3.88981926676706e-013
vertex 9.56357000000023 26.6842099999999 -2.07317754831941e-013
vertex 8.4835700000002 26.9735999999999 -2.15400777222613e-013
endloop
endfacet
facet normal 4.92587999744835e-015 -9.54791801177635e-015 -1.0
outer loop
vertex 10.6435700000002 24.8135999999998 -1.84137373522687e-013
vertex 16.96714 -1.46638257092491e-013 8.39299918297901e-014
vertex 10.3541800000002 23.7335999999999 -1.7525112248243e-013
endloop
endfacet
facet normal 4.92587999744835e-015 -9.54791801177635e-015 -1.0
outer loop
vertex 10.3541800000002 23.7335999999999 -1.7525112248243e-013
vertex 16.96714 -1.46638257092491e-013 8.39299918297901e-014
vertex 9.5635700000002 22.9429899999999 -1.71596893007922e-013
endloop
endfacet
facet normal 4.92587999744835e-015 -9.54791801177635e-015 -1.0
outer loop
vertex 9.5635700000002 22.9429899999999 -1.71596893007922e-013
vertex 16.96714 -1.46638257092491e-013 8.39299918297901e-014
vertex 8.48357000000017 22.6535999999999 -1.74153771411739e-013
endloop
endfacet
facet normal 4.92587999744835e-015 -9.54791801177635e-015 -1.0
outer loop
vertex 8.48357000000017 22.6535999999999 -1.74153771411739e-013
vertex 16.96714 -1.46638257092491e-013 8.39299918297901e-014
vertex 9.56357000000005 4.18419999999989 7.51049591220665e-015
endloop
endfacet
facet normal 4.92587999744835e-015 -9.54791801177635e-015 -1.0
outer loop
vertex 8.48357000000017 22.6535999999999 -1.74153771411739e-013
vertex 9.56357000000005 4.18419999999989 7.51049591220665e-015
vertex 8.48357000000002 4.4735999999999 -5.72621957645837e-016
endloop
endfacet
facet normal 4.92587999744835e-015 -9.54791801177635e-015 -1.0
outer loop
vertex 9.56357000000005 4.18419999999989 7.51049591220665e-015
vertex 16.96714 -1.46638257092491e-013 8.39299918297901e-014
vertex 10.35418 3.3935999999999 1.89535298770996e-014
endloop
endfacet
facet normal 4.92587999744835e-015 -9.54791801177635e-015 -1.0
outer loop
vertex 10.35418 3.3935999999999 1.89535298770996e-014
vertex 16.96714 -1.46638257092491e-013 8.39299918297901e-014
vertex 10.64357 2.31359999999991 3.06907817422795e-014
endloop
endfacet
facet normal 4.92587999744835e-015 -9.54791801177635e-015 -1.0
outer loop
vertex 10.64357 2.31359999999991 3.06907817422795e-014
vertex 16.96714 -1.46638257092491e-013 8.39299918297901e-014
vertex 10.35418 1.23359999999991 3.95770327825361e-014
endloop
endfacet
facet normal 4.92587999744835e-015 -9.54791801177635e-015 -1.0
outer loop
vertex 10.35418 1.23359999999991 3.95770327825361e-014
vertex 16.96714 -1.46638257092491e-013 8.39299918297901e-014
vertex 9.56357000000002 0.442999999999932 4.32311667778638e-014
endloop
endfacet
facet normal 4.92587999744835e-015 -9.54791801177635e-015 -1.0
outer loop
vertex 9.56357000000002 0.442999999999932 4.32311667778638e-014
vertex 16.96714 -1.46638257092491e-013 8.39299918297901e-014
vertex 8.48356999999998 0.153599999999857 4.06743838532282e-014
endloop
endfacet
facet normal 4.92587999744835e-015 -9.54791801177635e-015 -1.0
outer loop
vertex 4.0662980702426e-013 49.6272 -4.73484540464142e-013
vertex 6.32357000000039 47.3135999999999 -4.20245330376631e-013
vertex 1.18708343434187e-016 -1.12798659301916e-014 3.51896289882996e-016
endloop
endfacet
facet normal 4.92587999744835e-015 -9.54791801177635e-015 -1.0
outer loop
vertex 6.32357000000039 47.3135999999999 -4.20245330376631e-013
vertex 4.0662980702426e-013 49.6272 -4.73484540464142e-013
vertex 6.61296000000039 48.3935999999999 -4.29131581416888e-013
endloop
endfacet
facet normal 4.92587999744835e-015 -9.54791801177635e-015 -1.0
outer loop
vertex 6.61296000000039 48.3935999999999 -4.29131581416888e-013
vertex 4.0662980702426e-013 49.6272 -4.73484540464142e-013
vertex 7.40357000000039 49.1841999999999 -4.32785715412215e-013
endloop
endfacet
facet normal 4.92587999744835e-015 -9.54791801177635e-015 -1.0
outer loop
vertex 7.40357000000039 49.1841999999999 -4.32785715412215e-013
vertex 4.0662980702426e-013 49.6272 -4.73484540464142e-013
vertex 8.48357000000039 49.4735999999999 -4.30228932487579e-013
endloop
endfacet
facet normal 4.92587999744835e-015 -9.54791801177635e-015 -1.0
outer loop
vertex 1.18708343434187e-016 -1.12798659301916e-014 3.51896289882996e-016
vertex 6.32357000000039 47.3135999999999 -4.20245330376631e-013
vertex 6.61296000000038 46.2335999999999 -4.08508078511451e-013
endloop
endfacet
facet normal 4.92587999744835e-015 -9.54791801177635e-015 -1.0
outer loop
vertex 1.18708343434187e-016 -1.12798659301916e-014 3.51896289882996e-016
vertex 6.61296000000038 46.2335999999999 -4.08508078511451e-013
vertex 7.40357000000036 45.4429999999999 -3.97065044546558e-013
endloop
endfacet
facet normal 4.92587999744835e-015 -9.54791801177635e-015 -1.0
outer loop
vertex 1.18708343434187e-016 -1.12798659301916e-014 3.51896289882996e-016
vertex 7.40357000000036 45.4429999999999 -3.97065044546558e-013
vertex 8.48357000000035 45.1535999999999 -3.88981926676706e-013
endloop
endfacet
facet normal 4.92587999744835e-015 -9.54791801177635e-015 -1.0
outer loop
vertex 1.18708343434187e-016 -1.12798659301916e-014 3.51896289882996e-016
vertex 8.48357000000035 45.1535999999999 -3.88981926676706e-013
vertex 6.32357000000021 24.8135999999999 -2.05417175111664e-013
endloop
endfacet
facet normal 4.92587999744835e-015 -9.54791801177635e-015 -1.0
outer loop
vertex 6.32357000000021 24.8135999999999 -2.05417175111664e-013
vertex 8.48357000000035 45.1535999999999 -3.88981926676706e-013
vertex 6.61296000000021 25.8936 -2.14303426151922e-013
endloop
endfacet
facet normal 4.92587999744835e-015 -9.54791801177635e-015 -1.0
outer loop
vertex 6.61296000000021 25.8936 -2.14303426151922e-013
vertex 8.48357000000035 45.1535999999999 -3.88981926676706e-013
vertex 7.40357000000021 26.6842099999999 -2.17957655626429e-013
endloop
endfacet
facet normal 4.92587999744835e-015 -9.54791801177635e-015 -1.0
outer loop
vertex 7.40357000000021 26.6842099999999 -2.17957655626429e-013
vertex 8.48357000000035 45.1535999999999 -3.88981926676706e-013
vertex 8.4835700000002 26.9735999999999 -2.15400777222613e-013
endloop
endfacet
facet normal 4.92587999744835e-015 -9.54791801177635e-015 -1.0
outer loop
vertex 1.18708343434187e-016 -1.12798659301916e-014 3.51896289882996e-016
vertex 6.32357000000021 24.8135999999999 -2.05417175111664e-013
vertex 6.61296000000019 23.7335999999999 -1.93679923246484e-013
endloop
endfacet
facet normal 4.92587999744835e-015 -9.54791801177635e-015 -1.0
outer loop
vertex 1.18708343434187e-016 -1.12798659301916e-014 3.51896289882996e-016
vertex 6.61296000000019 23.7335999999999 -1.93679923246484e-013
vertex 7.40357000000018 22.9429899999999 -1.82236793802411e-013
endloop
endfacet
facet normal 4.92587999744835e-015 -9.54791801177635e-015 -1.0
outer loop
vertex 1.18708343434187e-016 -1.12798659301916e-014 3.51896289882996e-016
vertex 7.40357000000018 22.9429899999999 -1.82236793802411e-013
vertex 8.48357000000017 22.6535999999999 -1.74153771411739e-013
endloop
endfacet
facet normal 4.92587999744835e-015 -9.54791801177635e-015 -1.0
outer loop
vertex 1.18708343434187e-016 -1.12798659301916e-014 3.51896289882996e-016
vertex 8.48357000000017 22.6535999999999 -1.74153771411739e-013
vertex 7.40357000000003 4.18419999999991 -3.12940488228201e-015
endloop
endfacet
facet normal 4.92587999744835e-015 -9.54791801177635e-015 -1.0
outer loop
vertex 7.40357000000003 4.18419999999991 -3.12940488228201e-015
vertex 8.48357000000017 22.6535999999999 -1.74153771411739e-013
vertex 8.48357000000002 4.4735999999999 -5.72621957645837e-016
endloop
endfacet
facet normal 4.92587999744835e-015 -9.54791801177635e-015 -1.0
outer loop
vertex 1.18708343434187e-016 -1.12798659301916e-014 3.51896289882996e-016
vertex 7.40357000000003 4.18419999999991 -3.12940488228201e-015
vertex 6.61296000000002 3.39359999999993 5.24729113045583e-016
endloop
endfacet
facet normal 4.92587999744835e-015 -9.54791801177635e-015 -1.0
outer loop
vertex 1.18708343434187e-016 -1.12798659301916e-014 3.51896289882996e-016
vertex 6.61296000000002 3.39359999999993 5.24729113045583e-016
vertex 6.32357000000002 2.31359999999994 9.4109801533024e-015
endloop
endfacet
facet normal 4.92587999744835e-015 -9.54791801177635e-015 -1.0
outer loop
vertex 1.18708343434187e-016 -1.12798659301916e-014 3.51896289882996e-016
vertex 6.32357000000002 2.31359999999994 9.4109801533024e-015
vertex 6.61296000000001 1.23359999999995 2.11482320184822e-014
endloop
endfacet
facet normal 4.92587999744835e-015 -9.54791801177635e-015 -1.0
outer loop
vertex 1.18708343434187e-016 -1.12798659301916e-014 3.51896289882996e-016
vertex 6.61296000000001 1.23359999999995 2.11482320184822e-014
vertex 7.40357 0.442999999999954 3.25912659833752e-014
endloop
endfacet
facet normal 4.92587999744835e-015 -9.54791801177635e-015 -1.0
outer loop
vertex 1.18708343434187e-016 -1.12798659301916e-014 3.51896289882996e-016
vertex 7.40357 0.442999999999954 3.25912659833752e-014
vertex 8.48356999999998 0.153599999999857 4.06743838532282e-014
endloop
endfacet
facet normal 4.92587999744835e-015 -9.54791801177635e-015 -1.0
outer loop
vertex 1.18708343434187e-016 -1.12798659301916e-014 3.51896289882996e-016
vertex 8.48356999999998 0.153599999999857 4.06743838532282e-014
vertex 16.96714 -1.46638257092491e-013 8.39299918297901e-014
endloop
endfacet
facet normal 4.92587999744835e-015 -9.54791801177635e-015 -1.0
outer loop
vertex 1.18708343434187e-016 -1.12798659301916e-014 3.51896289882996e-016
vertex 16.96714 -1.46638257092491e-013 8.39299918297901e-014
vertex 16.83674 -0.613500000000144 8.91453047783475e-014
endloop
endfacet
facet normal 4.92587999744835e-015 -9.54791801177635e-015 -1.0
outer loop
vertex 1.18708343434187e-016 -1.12798659301916e-014 3.51896289882996e-016
vertex 16.83674 -0.613500000000144 8.91453047783475e-014
vertex 0.130400000000011 -0.613500000000009 6.85187874177509e-015
endloop
endfacet
facet normal 4.92587999744835e-015 -9.54791801177635e-015 -1.0
outer loop
vertex 0.130400000000011 -0.613500000000009 6.85187874177509e-015
vertex 16.83674 -0.613500000000144 8.91453047783475e-014
vertex 16.58165 -1.18640000000016 9.33587642787454e-014
endloop
endfacet
facet normal 4.92587999744835e-015 -9.54791801177635e-015 -1.0
outer loop
vertex 0.130400000000011 -0.613500000000009 6.85187874177509e-015
vertex 16.58165 -1.18640000000016 9.33587642787454e-014
vertex 0.385489999999986 -1.18640000000002 1.35784236992709e-014
endloop
endfacet
facet normal 4.92587999744835e-015 -9.54791801177635e-015 -1.0
outer loop
vertex 0.385489999999986 -1.18640000000002 1.35784236992709e-014
vertex 16.58165 -1.18640000000016 9.33587642787454e-014
vertex 16.213 -1.69380000000014 9.6387452216861e-014
endloop
endfacet
facet normal 4.92587999744835e-015 -9.54791801177635e-015 -1.0
outer loop
vertex 0.385489999999986 -1.18640000000002 1.35784236992709e-014
vertex 16.213 -1.69380000000014 9.6387452216861e-014
vertex 0.754140000000002 -1.69380000000001 2.02389629595054e-014
endloop
endfacet
facet normal 4.92587999744835e-015 -9.54791801177635e-015 -1.0
outer loop
vertex 0.754140000000002 -1.69380000000001 2.02389629595054e-014
vertex 16.213 -1.69380000000014 9.6387452216861e-014
vertex 15.74693 -2.11350000000015 9.80989085159931e-014
endloop
endfacet
facet normal 4.92587999744835e-015 -9.54791801177635e-015 -1.0
outer loop
vertex 0.754140000000002 -1.69380000000001 2.02389629595054e-014
vertex 15.74693 -2.11350000000015 9.80989085159931e-014
vertex 1.22020999999999 -2.11350000000004 2.6542029039459e-014
endloop
endfacet
facet normal 4.92587999744835e-015 -9.54791801177635e-015 -1.0
outer loop
vertex 1.22020999999999 -2.11350000000004 2.6542029039459e-014
vertex 15.74693 -2.11350000000015 9.80989085159931e-014
vertex 15.20378 -2.42700000000013 9.84166890920704e-014
endloop
endfacet
facet normal 4.92587999744835e-015 -9.54791801177635e-015 -1.0
outer loop
vertex 1.22020999999999 -2.11350000000004 2.6542029039459e-014
vertex 15.20378 -2.42700000000013 9.84166890920704e-014
vertex 1.76335999999999 -2.42700000000002 3.22107930567648e-014
endloop
endfacet
facet normal 4.92587999744835e-015 -9.54791801177635e-015 -1.0
outer loop
vertex 1.76335999999999 -2.42700000000002 3.22107930567648e-014
vertex 15.20378 -2.42700000000013 9.84166890920704e-014
vertex 14.6073 -2.62080000000019 9.73288867018752e-014
endloop
endfacet
facet normal 4.92587999744835e-015 -9.54791801177635e-015 -1.0
outer loop
vertex 1.76335999999999 -2.42700000000002 3.22107930567648e-014
vertex 14.6073 -2.62080000000019 9.73288867018752e-014
vertex 2.35984 -2.62080000000009 3.69993684683255e-014
endloop
endfacet
facet normal 4.92587999744835e-015 -9.54791801177635e-015 -1.0
outer loop
vertex 2.35984 -2.62080000000009 3.69993684683255e-014
vertex 14.6073 -2.62080000000019 9.73288867018752e-014
vertex 13.98357 -2.68640000000016 9.4882810992639e-014
endloop
endfacet
facet normal 4.92587999744835e-015 -9.54791801177635e-015 -1.0
outer loop
vertex 2.35984 -2.62080000000009 3.69993684683255e-014
vertex 13.98357 -2.68640000000016 9.4882810992639e-014
vertex 2.98356999999999 -2.68640000000007 4.06981310207065e-014
endloop
endfacet
facet normal 0.104596804671138 0.994514710023229 -8.98031360488075e-015
outer loop
vertex 14.6073000000004 52.248 9.99999999999958
vertex 13.9835700000004 52.3135999999999 -4.30252679655058e-013
vertex 13.9835700000004 52.3136 9.99999999999957
endloop
endfacet
facet normal 0.104596804671138 0.994514710023229 -8.98031360488075e-015
outer loop
vertex 13.9835700000004 52.3135999999999 -4.30252679655058e-013
vertex 14.6073000000004 52.248 9.99999999999958
vertex 14.6073000000004 52.2479999999999 -4.26553917102677e-013
endloop
endfacet
endsolid X Axis Belt Tensioner
